<svg xmlns="http://www.w3.org/2000/svg" width="27.125" height="26.627" viewBox="0 0 27.125 26.627">
  <g id="枠つきの羽根ペンのアイコン素材" transform="translate(-202.178 818.959)">
    <path id="パス_2258" data-name="パス 2258" d="M173.086,4.772c-5.651.78-11.062,11.382-13.725,16.289-.67,1.234.5,1.876,1.188.7.5-.848,1.7-3.311,2.353-3.184,3.115.519,4.776-1.512,3.6-2.79,3.963.081,5.927-2.1,4.8-3.423a5.935,5.935,0,0,0,4.438-.509C178.984,10.08,178.788,3.985,173.086,4.772Z" transform="translate(51.448 -823.661)" fill="#4b4b4b"/>
    <path id="パス_2259" data-name="パス 2259" d="M21.679,96.794a8,8,0,0,1-2.2,1.473v10.97a.865.865,0,0,1-.865.866H3.464a.865.865,0,0,1-.866-.866V94.089a.865.865,0,0,1,.866-.866h8.5c.6-.907,1.2-1.779,1.827-2.6H3.464A3.462,3.462,0,0,0,0,94.089v15.148A3.462,3.462,0,0,0,3.464,112.7H18.613a3.462,3.462,0,0,0,3.463-3.463v-12.5S21.934,96.554,21.679,96.794Z" transform="translate(202.177 -905.033)" fill="#4b4b4b"/>
  </g>
</svg>
