<svg xmlns="http://www.w3.org/2000/svg" xmlns:xlink="http://www.w3.org/1999/xlink" width="30" height="25" viewBox="0 0 30 25">
  <defs>
    <clipPath id="clip-path">
      <ellipse id="楕円形_63" data-name="楕円形 63" cx="15" cy="12.5" rx="15" ry="12.5" fill="#fff" stroke="#707070" stroke-width="1"/>
    </clipPath>
  </defs>
  <g id="マスクグループ_2" data-name="マスクグループ 2" clip-path="url(#clip-path)">
    <g id="キラキラ_3" data-name="キラキラ 3" transform="translate(4.399)">
      <path id="パス_2455" data-name="パス 2455" d="M17.2,8.4a.548.548,0,0,0,0-1.071,13.606,13.606,0,0,1-2.642-.844,6.976,6.976,0,0,1-2.077-1.337,6.977,6.977,0,0,1-1.337-2.077A13.59,13.59,0,0,1,10.3.433a.548.548,0,0,0-1.071,0,13.637,13.637,0,0,1-.844,2.642A6.967,6.967,0,0,1,7.049,5.152,6.971,6.971,0,0,1,4.973,6.489a13.634,13.634,0,0,1-2.642.845.547.547,0,0,0,0,1.07,13.567,13.567,0,0,1,2.642.845A6.974,6.974,0,0,1,7.05,10.586a6.97,6.97,0,0,1,1.337,2.077A13.575,13.575,0,0,1,9.232,15.3a.548.548,0,0,0,1.071,0,13.585,13.585,0,0,1,.845-2.642,6.962,6.962,0,0,1,1.336-2.077,6.97,6.97,0,0,1,2.077-1.337A13.629,13.629,0,0,1,17.2,8.4ZM11.71,9.811a8.022,8.022,0,0,0-1.563,2.406c-.14.316-.264.642-.38.97-.116-.328-.24-.655-.38-.97A8.018,8.018,0,0,0,7.824,9.812,8.027,8.027,0,0,0,5.419,8.249c-.316-.14-.642-.264-.971-.38.328-.116.655-.239.97-.38A8.033,8.033,0,0,0,7.824,5.926,8.015,8.015,0,0,0,9.387,3.52c.141-.316.264-.642.38-.97.116.328.239.654.38.97a8.025,8.025,0,0,0,1.563,2.405,8.025,8.025,0,0,0,2.406,1.563c.316.14.642.264.97.38-.329.116-.655.239-.97.38A8.029,8.029,0,0,0,11.71,9.811Z" transform="translate(-1.899)" fill="#4b4b4b"/>
      <path id="パス_2456" data-name="パス 2456" d="M22.668,15.613a7.916,7.916,0,0,1-1.535-.49,3.961,3.961,0,0,1-1.175-.753,3.949,3.949,0,0,1-.753-1.174,7.9,7.9,0,0,1-.491-1.534.548.548,0,0,0-1.071,0,7.914,7.914,0,0,1-.49,1.535A3.941,3.941,0,0,1,16.4,14.37a3.95,3.95,0,0,1-1.174.753,7.946,7.946,0,0,1-1.535.491.547.547,0,0,0,0,1.07,7.894,7.894,0,0,1,1.535.491,3.935,3.935,0,0,1,1.174.753,3.945,3.945,0,0,1,.753,1.175,7.866,7.866,0,0,1,.491,1.534.547.547,0,0,0,1.07,0,7.9,7.9,0,0,1,.49-1.535,3.262,3.262,0,0,1,1.928-1.928,7.95,7.95,0,0,1,1.534-.491.547.547,0,0,0,0-1.07Zm-1.98.561a4.341,4.341,0,0,0-2.482,2.483c-.009.02-.017.042-.026.063-.009-.021-.017-.043-.026-.063a5.005,5.005,0,0,0-.979-1.5,5,5,0,0,0-1.5-.979l-.063-.026.063-.026a5.009,5.009,0,0,0,1.5-.978,5.005,5.005,0,0,0,.979-1.5c.009-.021.017-.042.026-.063.009.021.017.042.026.063a5.014,5.014,0,0,0,.979,1.5,5.012,5.012,0,0,0,1.5.979l.063.026Z" transform="translate(-1.899)" fill="#4b4b4b"/>
      <path id="パス_2457" data-name="パス 2457" d="M11.167,20.245A6.6,6.6,0,0,1,9.9,19.839a3.237,3.237,0,0,1-.96-.615,3.221,3.221,0,0,1-.614-.959,6.518,6.518,0,0,1-.406-1.271.547.547,0,0,0-1.071,0,6.608,6.608,0,0,1-.406,1.272,3.23,3.23,0,0,1-.614.96,3.232,3.232,0,0,1-.959.614,6.585,6.585,0,0,1-1.271.406.547.547,0,0,0,0,1.07,6.572,6.572,0,0,1,1.272.406,3.226,3.226,0,0,1,.959.614,3.235,3.235,0,0,1,.615.96,6.557,6.557,0,0,1,.407,1.271.548.548,0,0,0,1.071,0A6.54,6.54,0,0,1,8.323,23.3a3.228,3.228,0,0,1,.614-.96,3.225,3.225,0,0,1,.96-.614,6.573,6.573,0,0,1,1.271-.407.547.547,0,0,0,0-1.07Zm-3,1.317a4.144,4.144,0,0,0-.781,1.168A4.135,4.135,0,0,0,6.6,21.562a4.151,4.151,0,0,0-1.167-.781A4.168,4.168,0,0,0,6.6,20a4.145,4.145,0,0,0,.781-1.168A4.155,4.155,0,0,0,8.162,20a4.125,4.125,0,0,0,1.168.782A4.145,4.145,0,0,0,8.162,21.562Z" transform="translate(-1.899)" fill="#4b4b4b"/>
    </g>
  </g>
</svg>
