<svg xmlns="http://www.w3.org/2000/svg" width="13" height="14.857" viewBox="0 0 13 14.857">
  <path id="Icon_awesome-bell" data-name="Icon awesome-bell" d="M6.5,14.857A1.857,1.857,0,0,0,8.356,13H4.644A1.857,1.857,0,0,0,6.5,14.857Zm6.25-4.344c-.561-.6-1.61-1.509-1.61-4.477a4.582,4.582,0,0,0-3.713-4.5v-.6a.928.928,0,1,0-1.856,0v.6a4.582,4.582,0,0,0-3.713,4.5C1.859,9,.81,9.91.25,10.513a.907.907,0,0,0-.25.63.929.929,0,0,0,.931.929H12.068A.929.929,0,0,0,13,11.143a.906.906,0,0,0-.25-.63Z" fill="#fff"/>
</svg>
