<svg xmlns="http://www.w3.org/2000/svg" width="190.471" height="137.536" viewBox="0 0 190.471 137.536">
  <g id="グループ_979" data-name="グループ 979" transform="translate(0)">
    <rect id="長方形_1166" data-name="長方形 1166" width="1.695" height="66.972" transform="translate(165.393 66.993)" fill="#3f3d56"/>
    <path id="パス_2140" data-name="パス 2140" d="M948.413,286.088c.108,23.419-16.368,42.479-16.368,42.479s-16.651-18.908-16.759-42.327,16.368-42.479,16.368-42.479S948.3,262.669,948.413,286.088Z" transform="translate(-765.677 -210.56)" fill="#3f3d56"/>
    <rect id="長方形_1167" data-name="長方形 1167" width="0.872" height="34.445" transform="translate(132.315 98.504)" fill="#3f3d56"/>
    <path id="パス_2141" data-name="パス 2141" d="M784.972,543.419c.056,12.045-8.419,21.848-8.419,21.848s-8.564-9.725-8.62-21.77,8.419-21.848,8.419-21.848S784.917,531.374,784.972,543.419Z" transform="translate(-643.737 -440.525)" fill="#3f3d56"/>
    <ellipse id="楕円形_10" data-name="楕円形 10" cx="23.626" cy="3.622" rx="23.626" ry="3.622" transform="translate(126.749 130.293)" fill="#3f3d56"/>
    <path id="パス_2142" data-name="パス 2142" d="M856.916,321.277a7.776,7.776,0,0,0-5.962-3.54s-3.859-.493-6.334,4.658c-2.307,4.8-5.492,9.437-.513,10.561l.9-2.8.557,3.008a19.481,19.481,0,0,0,2.13.036c5.332-.172,10.41.05,10.247-1.863C857.723,328.793,858.842,324.531,856.916,321.277Z" transform="translate(-704.592 -271.768)" fill="#2f2e41"/>
    <path id="パス_2143" data-name="パス 2143" d="M889.234,368.638s2.587,3.622,1.035,6.553,3.622,6.036,3.622,6.036l3.794-8.278s-4.484-2.932-3.277-5.691Z" transform="translate(-744.119 -312.759)" fill="#fbbebe"/>
    <circle id="楕円形_11" data-name="楕円形 11" cx="4.484" cy="4.484" r="4.484" transform="translate(142.356 48.463)" fill="#fbbebe"/>
    <path id="パス_2144" data-name="パス 2144" d="M809.255,341.984,813,337.149s1.319-5.068,3.23-4.811-.755,6.077-.755,6.077l-3.723,5.351Z" transform="translate(-677.932 -283.854)" fill="#fbbebe"/>
    <path id="パス_2145" data-name="パス 2145" d="M871.469,707.532l1.207,6.381,2.587.69-.69-7.588Z" transform="translate(-721.18 -585.086)" fill="#fbbebe"/>
    <path id="パス_2146" data-name="パス 2146" d="M1022.47,663.395l4.656,6.381,1.9.862,1.552-2.587-4.656-6.036Z" transform="translate(-846.14 -547.847)" fill="#fbbebe"/>
    <path id="パス_2147" data-name="パス 2147" d="M869.773,399.156l-2.877-3.787s-5.574,1.028-6.091,1.545,1.38,10,1.38,10a7.338,7.338,0,0,0,1.9,3.966l1.552,1.035,12.762-2.587.48-5.678a14.9,14.9,0,0,0-3.929-11.395h0l-2.221.3Z" transform="translate(-720.518 -333.448)" fill="#575a89"/>
    <path id="パス_2148" data-name="パス 2148" d="M804.819,384.846l-.862-.345-3.966-.345s-1.38-.345-1.035-1.035.69-.862,0-1.035-.862-.345-.69-.862a6.865,6.865,0,0,1,1.207-1.552l-2.932-2.414s-.159.112-.415.32c-1.456,1.179-6.061,5.431-2.689,9.683,3.966,5,8.623,7.933,12.417,6.9Z" transform="translate(-663.842 -321.035)" fill="#575a89"/>
    <path id="パス_2149" data-name="パス 2149" d="M881.762,492.983V495.4a10.074,10.074,0,0,0-1.035,5.691c.517,2.759.69,4.139.69,4.139a23.547,23.547,0,0,0,1.207,6.9c1.207,3.449-2.759,26.041,2.242,26.386s7.76.69,9.313-1.035-2.587-31.387-2.587-31.387,14.141,29.49,17.073,28.283,10.347-3.966,9.485-5.519-22.592-36.043-22.592-36.043l-.69-1.552Z" transform="translate(-736.992 -415.375)" fill="#2f2e41"/>
    <path id="パス_2150" data-name="パス 2150" d="M914.461,791.19s-2.759-.172-2.759.69a18.077,18.077,0,0,1-1.38,3.794s-1.035,3.449,1.725,3.1,4.484-3.449,4.484-3.449l-.69-3.277Z" transform="translate(-761.412 -663.571)" fill="#2f2e41"/>
    <path id="パス_2151" data-name="パス 2151" d="M1091.43,747.942s-2.414-1.552-2.242-.517.345,3.794,1.552,3.966,4.829,1.207,5,1.552,4.311,1.725,4.311-.517-2.587-3.966-2.587-3.966l-2.932-2.242s-1.9-.172-2.242,1.035S1091.43,747.942,1091.43,747.942Z" transform="translate(-909.582 -626.358)" fill="#2f2e41"/>
    <circle id="楕円形_12" data-name="楕円形 12" cx="2.863" cy="2.863" r="2.863" transform="translate(143.983 43.123)" fill="#2f2e41"/>
    <path id="パス_2152" data-name="パス 2152" d="M878.029,299.788a2.863,2.863,0,0,1,2.562-2.847,2.863,2.863,0,1,0,0,5.695A2.864,2.864,0,0,1,878.029,299.788Z" transform="translate(-734.347 -254.555)" fill="#2f2e41"/>
    <path id="パス_2153" data-name="パス 2153" d="M828.071,275.356l-3.912-2.049-5.4.838-1.118,4.937,2.783-.107.777-1.814v1.784l1.284-.049.745-2.888.466,3.074,4.565-.093Z" transform="translate(-676.632 -226.174)" fill="#2f2e41"/>
    <path id="パス_2154" data-name="パス 2154" d="M872.215,488.684l-6.034.163s-5.148,1-4.86-1.076,5.312-1.351,5.312-1.351l5.5-.839Z" transform="translate(-721.01 -410.677)" fill="#fbbebe"/>
    <path id="パス_2155" data-name="パス 2155" d="M921.493,390.492a1.288,1.288,0,0,1,1.42.884c1.181,3.722,4.82,16.179,1.2,17.888a17.817,17.817,0,0,1-7.366,1.924l-1.663-4.1,1.514-1.421,1.617-10.395.775-4.406Z" transform="translate(-765.514 -331.974)" fill="#575a89"/>
    <path id="パス_2156" data-name="パス 2156" d="M865.695,379.515l-.69,6.9L858.969,389l6.726-1.552Z" transform="translate(-710.835 -314.066)" opacity="0.4"/>
    <path id="パス_2157" data-name="パス 2157" d="M744.674,298.7h0a8.078,8.078,0,0,1,4.717,3.427l.564.874.028.036,9.9,2.9a.721.721,0,0,1,.493.882l-.768,2.817a.721.721,0,0,1-.89.5l-9.9-2.767h0l-.994.376a8.884,8.884,0,0,1-5.712.194h0Z" transform="translate(-622.367 -256.029)" fill="#3f3d56"/>
    <ellipse id="楕円形_13" data-name="楕円形 13" cx="0.604" cy="1.133" rx="0.604" ry="1.133" transform="translate(130.385 50.789) rotate(-73.69)" fill="#575a89"/>
    <circle id="楕円形_14" data-name="楕円形 14" cx="0.415" cy="0.415" r="0.415" transform="translate(131.809 50.311)" fill="#3f3d56"/>
    <ellipse id="楕円形_15" data-name="楕円形 15" cx="4.844" cy="2.191" rx="4.844" ry="2.191" transform="matrix(0.308, -0.951, 0.951, 0.308, 117.473, 51.269)" fill="#6c63ff"/>
    <path id="パス_2158" data-name="パス 2158" d="M743.714,304c.8-2.452.579-4.738-.467-5.235a1.014,1.014,0,0,1,.185.041c1.151.373,1.415,2.739.59,5.284s-2.427,4.306-3.578,3.932a1.014,1.014,0,0,1-.122-.049C741.454,308.121,742.933,306.415,743.714,304Z" transform="translate(-620.887 -256.082)" opacity="0.4"/>
    <path id="パス_2159" data-name="パス 2159" d="M170.2,93.928l-22.46-17.422a148.646,148.646,0,0,1-11.419-9.9,57.2,57.2,0,0,0-25.213-13.58c-24.585-6.311-44.062,4.88-52.921,21.312C44.653,99.451,34.279,140.2,94.3,118.508c13.127-4.743,26.414-5.248,36.489-7.746l36.481-7.522Z" transform="translate(-47.766 -51.242)" fill="#6c63ff"/>
    <circle id="楕円形_16" data-name="楕円形 16" cx="1.207" cy="1.207" r="1.207" transform="translate(53.8 10.954)" fill="#f2f2f2"/>
    <path id="パス_2160" data-name="パス 2160" d="M451.639,85.187h-.314v-.314h-.061v.314h-.314v.061h.314v.314h.061v-.314h.314Z" transform="translate(-373.181 -70.236)" fill="#f2f2f2"/>
    <path id="パス_2161" data-name="パス 2161" d="M634.639,237.187h-.314v-.314h-.061v.314h-.314v.061h.314v.314h.061v-.314h.314Z" transform="translate(-524.621 -196.023)" fill="#f2f2f2"/>
    <path id="パス_2162" data-name="パス 2162" d="M621.639,284.187h-.314v-.314h-.061v.314h-.314v.061h.314v.314h.061v-.314h.314Z" transform="translate(-513.863 -234.918)" fill="#f2f2f2"/>
    <path id="パス_2163" data-name="パス 2163" d="M62.639,324.187h-.314v-.314h-.061v.314h-.314v.061h.314v.314h.061v-.314h.314Z" transform="translate(-51.266 -268.019)" fill="#f2f2f2"/>
    <path id="パス_2164" data-name="パス 2164" d="M142.639,106.187h-.314v-.314h-.061v.314h-.314v.061h.314v.314h.061v-.314h.314Z" transform="translate(-117.469 -87.615)" fill="#f2f2f2"/>
    <path id="パス_2165" data-name="パス 2165" d="M453.639,292.187h-.314v-.314h-.061v.314h-.314v.061h.314v.314h.061v-.314h.314Z" transform="translate(-374.836 -241.538)" fill="#f2f2f2"/>
    <path id="パス_2166" data-name="パス 2166" d="M262.639,42.187h-.314v-.314h-.061v.314h-.314v.061h.314v.314h.061v-.314h.314Z" transform="translate(-216.775 -34.652)" fill="#f2f2f2"/>
    <path id="パス_2167" data-name="パス 2167" d="M312.536,238.915l-.391.06c.122.783.219,1.583.29,2.375l.395-.034C312.759,240.514,312.661,239.707,312.536,238.915Z" transform="translate(-266.552 -206.55)" fill="#e6e6e6"/>
    <path id="パス_2168" data-name="パス 2168" d="M306.384,211.575l-.379.116c.229.759.435,1.537.609,2.311l.388-.088C306.824,213.131,306.615,212.344,306.384,211.575Z" transform="translate(-261.47 -183.925)" fill="#e6e6e6"/>
    <path id="パス_2169" data-name="パス 2169" d="M296.565,185.355l-.36.166c.331.723.642,1.464.923,2.206l.371-.14C297.214,186.836,296.9,186.084,296.565,185.355Z" transform="translate(-253.361 -162.227)" fill="#e6e6e6"/>
    <path id="パス_2170" data-name="パス 2170" d="M283.29,160.775l-.335.212c.426.669.835,1.362,1.214,2.057l.348-.19C284.135,162.151,283.721,161.451,283.29,160.775Z" transform="translate(-242.396 -141.886)" fill="#e6e6e6"/>
    <path id="パス_2171" data-name="パス 2171" d="M266.787,138.245l-.3.257c.514.6,1.014,1.235,1.487,1.873l.317-.236C267.813,139.494,267.308,138.855,266.787,138.245Z" transform="translate(-228.766 -123.241)" fill="#e6e6e6"/>
    <path id="パス_2172" data-name="パス 2172" d="M247.389,118.185l-.264.295c.593.529,1.174,1.086,1.728,1.654l.285-.278C248.577,119.282,247.989,118.72,247.389,118.185Z" transform="translate(-212.745 -106.64)" fill="#e6e6e6"/>
    <path id="パス_2173" data-name="パス 2173" d="M225.467,100.965l-.222.328c.659.443,1.311.916,1.937,1.4l.245-.312C226.792,101.891,226.133,101.413,225.467,100.965Z" transform="translate(-194.638 -92.39)" fill="#e6e6e6"/>
    <path id="パス_2174" data-name="パス 2174" d="M206.4,89.006v.448c.412.216.821.441,1.221.673l.2-.343Q207.126,89.38,206.4,89.006Z" transform="translate(-179.047 -82.493)" fill="#e6e6e6"/>
    <path id="パス_2175" data-name="パス 2175" d="M314.57,267.186l.4-.007c.007.4.008.8,0,1.2l-.4-.006C314.578,267.98,314.577,267.582,314.57,267.186Z" transform="translate(-268.558 -229.94)" fill="#e6e6e6"/>
    <path id="パス_2176" data-name="パス 2176" d="M177.536,435.915l-.391.06c.122.783.219,1.583.29,2.375l.395-.034C177.759,437.514,177.661,436.707,177.536,435.915Z" transform="translate(-154.833 -369.576)" fill="#e6e6e6"/>
    <path id="パス_2177" data-name="パス 2177" d="M171.384,408.575l-.379.116c.229.759.435,1.537.609,2.311l.388-.088C171.824,410.131,171.615,409.344,171.384,408.575Z" transform="translate(-149.752 -346.951)" fill="#e6e6e6"/>
    <path id="パス_2178" data-name="パス 2178" d="M161.565,382.355l-.36.166c.331.723.642,1.464.923,2.206l.371-.14C162.214,383.836,161.9,383.085,161.565,382.355Z" transform="translate(-141.642 -325.253)" fill="#e6e6e6"/>
    <path id="パス_2179" data-name="パス 2179" d="M148.29,357.775l-.335.212c.426.669.835,1.362,1.214,2.057l.348-.19C149.135,359.151,148.721,358.451,148.29,357.775Z" transform="translate(-130.677 -304.912)" fill="#e6e6e6"/>
    <path id="パス_2180" data-name="パス 2180" d="M131.787,335.245l-.3.257c.514.6,1.014,1.235,1.487,1.873l.317-.236C132.813,336.494,132.308,335.855,131.787,335.245Z" transform="translate(-117.047 -286.267)" fill="#e6e6e6"/>
    <path id="パス_2181" data-name="パス 2181" d="M112.389,315.185l-.264.295c.593.529,1.174,1.086,1.728,1.654l.285-.278C113.577,316.282,112.989,315.72,112.389,315.185Z" transform="translate(-101.026 -269.667)" fill="#e6e6e6"/>
    <path id="パス_2182" data-name="パス 2182" d="M90.467,297.965l-.222.328c.659.443,1.311.916,1.937,1.4l.245-.312C91.792,298.891,91.133,298.413,90.467,297.965Z" transform="translate(-82.919 -255.416)" fill="#e6e6e6"/>
    <path id="パス_2183" data-name="パス 2183" d="M71.4,286.005v.448c.412.216.821.441,1.221.673l.2-.343Q72.126,286.379,71.4,286.005Z" transform="translate(-67.328 -245.519)" fill="#e6e6e6"/>
    <path id="パス_2184" data-name="パス 2184" d="M179.57,464.186l.4-.007c.007.4.008.8,0,1.2l-.4-.006C179.578,464.98,179.577,464.582,179.57,464.186Z" transform="translate(-156.84 -392.966)" fill="#e6e6e6"/>
    <path id="パス_2185" data-name="パス 2185" d="M639.536,336.915l-.391.06c.122.783.219,1.583.29,2.375l.395-.034C639.759,338.514,639.661,337.707,639.536,336.915Z" transform="translate(-537.159 -287.649)" fill="#e6e6e6"/>
    <path id="パス_2186" data-name="パス 2186" d="M633.384,309.575l-.379.116c.229.759.435,1.537.609,2.311l.388-.088C633.824,311.131,633.615,310.344,633.384,309.575Z" transform="translate(-532.078 -265.024)" fill="#e6e6e6"/>
    <path id="パス_2187" data-name="パス 2187" d="M623.565,283.355l-.36.166c.331.723.642,1.464.923,2.206l.371-.14C624.214,284.836,623.9,284.085,623.565,283.355Z" transform="translate(-523.968 -243.326)" fill="#e6e6e6"/>
    <path id="パス_2188" data-name="パス 2188" d="M610.29,258.775l-.335.212c.426.669.835,1.362,1.214,2.057l.348-.19C611.135,260.151,610.721,259.451,610.29,258.775Z" transform="translate(-513.003 -222.985)" fill="#e6e6e6"/>
    <path id="パス_2189" data-name="パス 2189" d="M593.787,236.245l-.3.257c.514.6,1.014,1.235,1.487,1.873l.317-.236C594.813,237.494,594.308,236.855,593.787,236.245Z" transform="translate(-499.373 -204.34)" fill="#e6e6e6"/>
    <path id="パス_2190" data-name="パス 2190" d="M574.389,216.185l-.264.295c.593.529,1.174,1.086,1.728,1.654l.285-.278C575.577,217.282,574.989,216.72,574.389,216.185Z" transform="translate(-483.352 -187.74)" fill="#e6e6e6"/>
    <path id="パス_2191" data-name="パス 2191" d="M552.467,198.965l-.222.328c.659.443,1.311.916,1.937,1.4l.245-.312C553.792,199.891,553.133,199.413,552.467,198.965Z" transform="translate(-465.245 -173.489)" fill="#e6e6e6"/>
    <path id="パス_2192" data-name="パス 2192" d="M533.405,187.005v.448c.412.216.821.441,1.221.673l.2-.343Q534.126,187.379,533.405,187.005Z" transform="translate(-449.654 -163.592)" fill="#e6e6e6"/>
    <path id="パス_2193" data-name="パス 2193" d="M641.57,365.186l.4-.007c.007.4.008.8,0,1.2l-.4-.006C641.578,365.98,641.577,365.582,641.57,365.186Z" transform="translate(-539.166 -311.039)" fill="#e6e6e6"/>
    <path id="パス_2194" data-name="パス 2194" d="M146.215,198.491h-.292V198.2h-.057v.292h-.292v.057h.292v.292h.057v-.292h.292Z" transform="translate(-120.468 -164.019)" fill="#f2f2f2"/>
    <path id="パス_2195" data-name="パス 2195" d="M126.674,300.848h-.292v-.292h-.057v.292h-.292v.057h.292v.292h.057v-.292h.292Z" transform="translate(-104.297 -248.723)" fill="#f2f2f2"/>
    <path id="パス_2196" data-name="パス 2196" d="M69.337,390.556h-.292v-.292h-.057v.292h-.292v.057h.292v.292h.057v-.292h.292Z" transform="translate(-56.848 -322.961)" fill="#f2f2f2"/>
    <path id="パス_2197" data-name="パス 2197" d="M262.3,171.064a21.179,21.179,0,1,1,9.827,7.89,6.851,6.851,0,1,1-9.827-7.89Z" transform="translate(-222.31 -123.09)" fill="#3f3d56"/>
    <path id="パス_2198" data-name="パス 2198" d="M343.356,190.679c4.855,0,8.2,2.693,8.2,6.564,0,2.564-1.243,4.337-3.638,5.749-2.253,1.308-3.017,2.266-3.017,3.923h0a1.023,1.023,0,0,1-1.023,1.023h-2.482a1.023,1.023,0,0,1-1.022-.987l0-.126a5.39,5.39,0,0,1,3.056-5.7c2.188-1.308,3.107-2.136,3.107-3.742s-1.554-2.784-3.483-2.784a3.318,3.318,0,0,0-3.159,1.879,2.286,2.286,0,0,1-2.089,1.306h0a2.247,2.247,0,0,1-2.006-3.275C337.036,192.161,339.661,190.679,343.356,190.679Zm-3.405,22.192a2.78,2.78,0,1,1,2.771,2.667A2.712,2.712,0,0,1,339.951,212.871Z" transform="translate(-285.907 -166.632)" fill="#6c63ff"/>
  </g>
</svg>
