<svg xmlns="http://www.w3.org/2000/svg" width="85.67" height="29" viewBox="0 0 85.67 29">
  <g id="グループ_1096" data-name="グループ 1096" transform="translate(-28.43 -432)">
    <g id="多角形_1" data-name="多角形 1" transform="translate(104.1 461) rotate(-180)" fill="#ffa201">
      <path d="M4.22,2.094a1.5,1.5,0,0,1,2.56,0L9.605,6.718A1.5,1.5,0,0,1,8.325,9H2.675a1.5,1.5,0,0,1-1.28-2.282Z" stroke="none"/>
      <path d="M 5.499999523162842 2.376589298248291 C 5.415689468383789 2.376589298248291 5.205339431762695 2.399899482727051 5.073359489440918 2.615869522094727 L 2.247939109802246 7.239279270172119 C 2.110119819641113 7.464809417724609 2.195419311523438 7.667778968811035 2.238489151000977 7.744579315185547 C 2.281559944152832 7.821379661560059 2.410269737243652 7.999999046325684 2.674579620361328 7.999999046325684 L 8.325408935546875 7.999999046325684 C 8.589729309082031 7.999999046325684 8.718439102172852 7.821379661560059 8.761508941650391 7.744579315185547 C 8.804579734802246 7.667778968811035 8.88987922668457 7.464799404144287 8.752059936523438 7.239269256591797 L 5.926639556884766 2.615869522094727 C 5.794659614562988 2.399909496307373 5.584309577941895 2.376589298248291 5.499999523162842 2.376589298248291 M 5.499999523162842 1.376594543457031 C 5.99373722076416 1.376594543457031 6.48747444152832 1.615869522094727 6.779919624328613 2.094419479370117 L 9.605339050292969 6.717819213867188 C 10.21615982055664 7.717349052429199 9.496809005737305 8.999999046325684 8.325408935546875 8.999999046325684 L 2.674579620361328 8.999999046325684 C 1.503189086914063 8.999999046325684 0.783839225769043 7.71735954284668 1.394659996032715 6.71782922744751 L 4.22007942199707 2.094419479370117 C 4.512524604797363 1.615869522094727 5.006261825561523 1.376594543457031 5.499999523162842 1.376594543457031 Z" stroke="none" fill="rgba(112,112,112,0.04)"/>
    </g>
    <path id="パス_2299" data-name="パス 2299" d="M12.795,0h60.08C79.942,0,85.67,4.813,85.67,10.75S79.942,21.5,72.875,21.5H12.795C5.728,21.5,0,16.687,0,10.75S5.728,0,12.795,0Z" transform="translate(28.43 432)" fill="#ffa200"/>
    <text id="解決_" data-name="解決！" transform="translate(60 447)" fill="#fff" stroke="rgba(112,112,112,0.04)" stroke-width="1" font-size="12" font-family="FutoGoB101Pr6N-Bold, A-OTF Futo Go B101 Pr6N" font-weight="700"><tspan x="0" y="0">解決！</tspan></text>
    <path id="パス_2300" data-name="パス 2300" d="M144.172,107.426a4.242,4.242,0,0,0-2.294,2.294.724.724,0,0,0,.392.947.716.716,0,0,0,.278.055.724.724,0,0,0,.67-.449,2.813,2.813,0,0,1,1.508-1.508.725.725,0,1,0-.553-1.339Z" transform="translate(-96.579 329.851)" fill="#fff"/>
    <path id="パス_2301" data-name="パス 2301" d="M192.1,440.236h3.427l.169-.881h-3.766Z" transform="translate(-145.236 7.504)" fill="#fff"/>
    <path id="パス_2302" data-name="パス 2302" d="M217.9,484.184c.618,0,1.119-.372,1.119-.832h-2.239C216.783,483.811,217.284,484.184,217.9,484.184Z" transform="translate(-169.364 -35.216)" fill="#fff"/>
    <path id="パス_2303" data-name="パス 2303" d="M88.7,351.644c.1.107.2.212.309.312l.727-.8c-.08-.076-.157-.154-.233-.235Z" transform="translate(-44.998 93.366)" fill="#fff"/>
    <path id="パス_2304" data-name="パス 2304" d="M27.965,212.084q0,.122,0,.246,0,.1,0,.2l.769-.04h.308c0-.053,0-.1,0-.157s0-.124,0-.185Z" transform="translate(13.978 228.178)" fill="#fff"/>
    <path id="パス_2305" data-name="パス 2305" d="M91.145,54.377l-.72-.8q-.162.151-.312.309l.8.726Q91.025,54.49,91.145,54.377Z" transform="translate(-46.372 382.086)" fill="#fff"/>
    <path id="パス_2306" data-name="パス 2306" d="M249.391,1.077l.181,0L249.629,0c-.08,0-.16,0-.239,0s-.135,0-.2,0l.067,1.076Z" transform="translate(-200.829 434.106)" fill="#fff"/>
    <path id="パス_2307" data-name="パス 2307" d="M447.88,213.649l-1.076.055c0,.052,0,.1,0,.154s0,.131,0,.2l1.076.062q.005-.129.005-.259C447.884,213.79,447.883,213.72,447.88,213.649Z" transform="translate(-392.707 226.659)" fill="#fff"/>
    <path id="パス_2308" data-name="パス 2308" d="M387.341,55.46q.12.114.233.234l.8-.719c-.1-.107-.2-.212-.31-.312Z" transform="translate(-334.971 381.031)" fill="#fff"/>
    <path id="パス_2309" data-name="パス 2309" d="M386.081,352.718l.717.8c.107-.1.212-.2.313-.309l-.8-.727C386.24,352.566,386.161,352.643,386.081,352.718Z" transform="translate(-333.748 91.852)" fill="#fff"/>
    <path id="パス_2310" data-name="パス 2310" d="M117.747,83.588a4.223,4.223,0,0,0-7.209,2.987,5.225,5.225,0,0,0,1.38,3.41,6.311,6.311,0,0,1,1.135,1.368H112.6l.19.981h3.992l.188-.981h-.5a6.312,6.312,0,0,1,1.135-1.368,5.225,5.225,0,0,0,1.38-3.41A4.22,4.22,0,0,0,117.747,83.588Zm-3.379,7.19a.164.164,0,0,1-.041.011.136.136,0,0,1-.137-.058l-1.111-1.977a.106.106,0,0,1,.069-.147.145.145,0,0,1,.178.048l1.111,1.977A.106.106,0,0,1,114.368,90.778Zm-.019-6.306a2.813,2.813,0,0,0-1.508,1.508.724.724,0,0,1-.67.449.715.715,0,0,1-.278-.055.724.724,0,0,1-.392-.947,4.242,4.242,0,0,1,2.294-2.294.725.725,0,1,1,.553,1.339Zm2.089,4.2-1.229,2.033a.152.152,0,0,1-.14.065.154.154,0,0,1-.041-.009.1.1,0,0,1-.06-.144l1.229-2.033a.156.156,0,0,1,.181-.056A.1.1,0,0,1,116.439,88.673Z" transform="translate(-66.203 354.145)" fill="#fff"/>
  </g>
</svg>
