<svg xmlns="http://www.w3.org/2000/svg" width="287.612" height="130.611" viewBox="0 0 287.612 130.611">
  <g id="グループ_993" data-name="グループ 993" transform="translate(-0.001 0)">
    <path id="パス_2267" data-name="パス 2267" d="M561.052,552.684c4.3,4.613,4.521,11.393,4.521,11.393s-6.747-.7-11.046-5.312-4.521-11.393-4.521-11.393S556.754,548.071,561.052,552.684Z" transform="translate(-420.275 -444.098)" fill="#6c63ff"/>
    <path id="パス_2268" data-name="パス 2268" d="M605.5,563.32c-4.613,4.3-11.393,4.521-11.393,4.521s.7-6.747,5.312-11.046,11.393-4.521,11.393-4.521S610.109,559.022,605.5,563.32Z" transform="translate(-451.186 -447.534)" fill="#6c63ff"/>
    <path id="パス_2269" data-name="パス 2269" d="M575.869,609.064H558.9a1.735,1.735,0,0,1-1.56-.976l-3.694-7.593A1.735,1.735,0,0,1,555.209,598h24.354a1.735,1.735,0,0,1,1.561,2.494l-3.694,7.593A1.735,1.735,0,0,1,575.869,609.064Z" transform="translate(-422.705 -479.587)" fill="#3f3d56"/>
    <circle id="楕円形_44" data-name="楕円形 44" cx="14.127" cy="14.127" r="14.127" transform="translate(215.231 8.62)" fill="#ffb8b8"/>
    <path id="パス_2270" data-name="パス 2270" d="M843.616,301.692s2.662,20.064-1.433,22.316,24.364,2.457,24.364,2.457-6.347-17.4-3.48-22.726Z" transform="translate(-624.802 -271.882)" fill="#ffb8b8"/>
    <path id="パス_2271" data-name="パス 2271" d="M842.915,360.109l-2.367,10.777-5,22.8-.15,1.249-1.727,14.456-1.149,9.6-.77,6.451c-4.684,2.407-8.078,4.069-8.078,4.069s-.292-1.464-.763-3.337a71.634,71.634,0,0,1-14.523,2.947c1.877,2.092,2.74,4.057,1.57,5.508-3.531,4.372-18.108-4.787-23.207-8.2a13.811,13.811,0,0,0-.134,2.471l-3.9-3,.386-6.9.651-11.682.818-14.65a15.375,15.375,0,0,1-.647-1.927c-1.195-4.249-2.645-12.735-3.758-19.85-.9-5.727-1.568-10.566-1.71-11.6-.019-.134-.029-.2-.029-.2l21.6-9.544c1.535,3.56,8.7,4.63,8.7,4.63a24.039,24.039,0,0,0,10.593-3.541Z" transform="translate(-580.39 -305.424)" fill="#d0cde1"/>
    <path id="パス_2272" data-name="パス 2272" d="M874.525,587.882s-.914.313-2.4.757a71.638,71.638,0,0,1-14.523,2.947c-4.438.284-8.188-.4-8.874-3.295a3.06,3.06,0,0,1,1.032-3.11c2.712-2.515,9.8-3.416,15.417-3.725,1.587-.086,3.055-.127,4.276-.142,2.075-.027,3.435.015,3.435.015l.033.127Z" transform="translate(-629.606 -467.884)" fill="#ffb8b8"/>
    <path id="パス_2273" data-name="パス 2273" d="M835.113,211.384l-2.641-1.057s5.523-6.08,13.207-5.552l-2.161-2.379s5.283-2.115,10.085,3.437c2.525,2.918,5.446,6.349,7.266,10.213H863.7l-1.18,2.6,4.132,2.6-4.241-.467a14.527,14.527,0,0,1,.115,4.312,5.579,5.579,0,0,1-2.043,3.65h0s-3.276-6.781-3.276-7.838v2.644s-2.641-2.379-2.641-3.965l-1.441,1.851-.72-2.908-8.885,2.908,1.441-2.379-5.523.793,2.161-2.908s-6.243,3.437-6.483,6.345a13.96,13.96,0,0,1-2.068,5.663S828.15,215.349,835.113,211.384Z" transform="translate(-617.507 -202)" fill="#2f2e41"/>
    <path id="パス_2274" data-name="パス 2274" d="M954.26,434.424c-1.439,1.56-5,3.909-9.327,6.453-1.608.945-3.319,1.919-5.066,2.887-4.167,2.311-8.53,4.6-12.13,6.451-4.684,2.407-8.078,4.069-8.078,4.069s-.292-1.464-.763-3.337c-.63-2.507-1.579-5.748-2.568-7.183-.035-.05-.069-.1-.1-.142-.288-.378-.578-.6-.864-.6l14.3-8.862,6.178-3.831-4.451-10.625L925.8,406.377l3.37-10.722,3.387-10.777H938.9s2.1,4.587,4.789,10.985c.4.957.817,1.954,1.239,2.983C950.462,412.294,957.354,431.072,954.26,434.424Z" transform="translate(-676.38 -330.193)" fill="#d0cde1"/>
    <path id="パス_2275" data-name="パス 2275" d="M825.315,592.831c-3.531,4.372-18.108-4.787-23.207-8.2-1.11-.743-1.771-1.214-1.771-1.214l4.664-6.22,1.477-1.969s1.322.7,3.275,1.842l.215.127c1.685.989,3.8,2.282,5.934,3.725a44.787,44.787,0,0,1,7.842,6.4C825.623,589.415,826.485,591.38,825.315,592.831Z" transform="translate(-595.751 -463.622)" fill="#ffb8b8"/>
    <path id="パス_2276" data-name="パス 2276" d="M752.8,441.72a9.19,9.19,0,0,0-1.556.127c-4.417.759-5.719,4.757-6.09,7.435a13.8,13.8,0,0,0-.135,2.47l-3.9-3-1.422-1.093a25.911,25.911,0,0,1-9.114-5.811,45.8,45.8,0,0,1-6.138-7.279,64.193,64.193,0,0,1-4.749-8.145,5.991,5.991,0,0,1-.083-5.081l4.832-10.768,7.062-15.737q.078-.562.171-1.1c1.4-8.03,5.152-11.6,5.152-11.6H739.7l1.917,11.6L744,408.143l-1.669,5.444-3.857,12.573,3.687,4Z" transform="translate(-538.799 -328.275)" fill="#d0cde1"/>
    <path id="パス_2277" data-name="パス 2277" d="M827.5,452.761l2.45,2.859c.91-.174,1.861-.378,2.84-.607l-.7-2.252,1.721,2.008a232.4,232.4,0,0,0,23.231-7.512s-13.881,1.018-24.246-1.246a9.862,9.862,0,0,0-11.186,5.572c-1.094,2.5-.922,4.665,2.957,4.665a25.605,25.605,0,0,0,3.91-.368Z" transform="translate(-610.255 -372.882)" fill="#6c63ff"/>
    <path id="パス_2278" data-name="パス 2278" d="M816.289,618.692v1.166a2.563,2.563,0,0,1-.175.936,2.643,2.643,0,0,1-.186.384,2.581,2.581,0,0,1-2.219,1.26H727.923a2.581,2.581,0,0,1-2.219-1.26,2.637,2.637,0,0,1-.186-.384,2.563,2.563,0,0,1-.175-.936v-1.166a2.579,2.579,0,0,1,2.58-2.58h4.945v-.544a.107.107,0,0,1,.107-.108h2.58a.108.108,0,0,1,.108.108v.544h1.612v-.544a.107.107,0,0,1,.108-.108h2.58a.107.107,0,0,1,.108.108v.544h1.614v-.544a.107.107,0,0,1,.031-.076.108.108,0,0,1,.076-.031h2.58a.108.108,0,0,1,.108.108v.544h1.612v-.544a.106.106,0,0,1,.031-.076.108.108,0,0,1,.076-.031h2.58a.107.107,0,0,1,.107.108v.544H750.5v-.544a.107.107,0,0,1,.108-.108h2.58a.107.107,0,0,1,.107.108v.544h1.614v-.544a.107.107,0,0,1,.031-.076.108.108,0,0,1,.076-.031h2.58a.108.108,0,0,1,.108.108v.544h1.612v-.544a.107.107,0,0,1,.108-.108h20.21a.108.108,0,0,1,.108.108v.544h1.614v-.544a.107.107,0,0,1,.108-.108h2.58a.109.109,0,0,1,.108.108v.544h1.612v-.544a.106.106,0,0,1,.031-.076.108.108,0,0,1,.076-.031h2.58a.108.108,0,0,1,.108.108v.544h1.612v-.544a.108.108,0,0,1,.108-.108h2.58a.108.108,0,0,1,.108.108v.544h1.614v-.544a.108.108,0,0,1,.108-.108h2.58a.107.107,0,0,1,.106.108v.544h1.614v-.544a.107.107,0,0,1,.108-.108h2.58a.108.108,0,0,1,.108.108v.544h1.612v-.544a.107.107,0,0,1,.108-.108h2.58a.107.107,0,0,1,.108.108v.544h7.525A2.579,2.579,0,0,1,816.289,618.692Z" transform="translate(-543.182 -491.827)" fill="#3f3d56"/>
    <path id="パス_2279" data-name="パス 2279" d="M817.107,460.492H785.131v-.659h-14.5v.659H738.526a2.163,2.163,0,0,0-2.163,2.163v43.784a2.163,2.163,0,0,0,2.163,2.163h78.581a2.163,2.163,0,0,0,2.163-2.163V462.655a2.163,2.163,0,0,0-2.162-2.163Z" transform="translate(-550.907 -382.735)" fill="#3f3d56"/>
    <circle id="楕円形_45" data-name="楕円形 45" cx="4.803" cy="4.803" r="4.803" transform="translate(222.169 88.24)" fill="none" stroke="#d0cde1" stroke-miterlimit="10" stroke-width="2"/>
    <circle id="楕円形_46" data-name="楕円形 46" cx="4.803" cy="4.803" r="4.803" transform="translate(220.632 89.969)" fill="#d0cde1"/>
    <circle id="楕円形_47" data-name="楕円形 47" cx="6.992" cy="6.992" r="6.992" transform="translate(77.426 42.558)" fill="#2f2e41"/>
    <path id="パス_2280" data-name="パス 2280" d="M392.184,342.518a6.993,6.993,0,0,1,6.155,10.31,6.99,6.99,0,1,0-11.614-7.681A6.975,6.975,0,0,1,392.184,342.518Z" transform="translate(-305.818 -299.768)" fill="#2f2e41"/>
    <circle id="楕円形_48" data-name="楕円形 48" cx="20.539" cy="20.539" r="20.539" transform="translate(50.814 8.457)" fill="#2f2e41"/>
    <path id="パス_2281" data-name="パス 2281" d="M286.261,238.026a20.535,20.535,0,0,1,28.464-2.154c-.168-.16-.334-.321-.509-.476a20.539,20.539,0,1,0-27.292,30.7c.174.155.354.3.532.449A20.535,20.535,0,0,1,286.261,238.026Z" transform="translate(-231.029 -221.773)" fill="#2f2e41"/>
    <circle id="楕円形_49" data-name="楕円形 49" cx="13.228" cy="13.228" r="13.228" transform="translate(57.95 22.904)" fill="#a0616a"/>
    <path id="パス_2282" data-name="パス 2282" d="M319.65,336.8s1.741,16.013-1.044,17.754,16.013,4.177,16.013,4.177S331.834,341.33,338.8,336.8Z" transform="translate(-257.871 -296.495)" fill="#a0616a"/>
    <path id="パス_2283" data-name="パス 2283" d="M274.182,375.238s5.184-2.421-2.282-1.558a27.021,27.021,0,0,1-13.906-2.445s-2.262-2.263-2.61.174,1.044,6.962-6.614,7.658-14.621-1.392-17.406,3.829-1.392,27.849-1.392,27.849,5.222,18.8,9.4,21.583,40.729-1.044,40.729-1.044l10.443-18.8V390.555s-1.392-7.658-11.14-5.57c0,0-6.266-1.392-5.918-4.525S274.182,375.238,274.182,375.238Z" transform="translate(-195.694 -319.96)" fill="#d0cde1"/>
    <path id="パス_2284" data-name="パス 2284" d="M263.6,563.345c.215-.937.359-1.468.359-1.468l-.111-.763-1.147-7.788-.482-3.285c4.176-1.74,5.221-9.747,5.221-9.747l.158-.094.713-.427v0l2.559-1.535.052-.031,1.034.688,2.1,1.4a24.691,24.691,0,0,0,19.443,4.455,21.4,21.4,0,0,0,4.576-1.322l5.064-1.689.158-.052.156.023,2.97.449.054.01.246.037-.688,4.755-1,6.91c2.634,1.395,4.976,4.015,7.024,7.244q.68,1.072,1.318,2.23c.553,1,1.082,2.038,1.585,3.1.061.127.121.256.181.384.194.417.386.838.573,1.26H262.68c.069-.425.138-.83.206-1.22a.289.289,0,0,0,.008-.04c.025-.131.048-.257.069-.384C263.2,565.18,263.424,564.122,263.6,563.345Z" transform="translate(-218.543 -437.673)" fill="#2f2e41"/>
    <path id="パス_2285" data-name="パス 2285" d="M259.892,396.33a26.709,26.709,0,0,1,2.437,15.665c-1.393,8.7,4.177,30.286,4.177,30.286l4.177-1.044s-2.785-18.1-2.089-22.279.7-20.539-2.785-22.627S259.892,396.33,259.892,396.33Z" transform="translate(-216.911 -337.57)" fill="#2f2e41"/>
    <path id="パス_2286" data-name="パス 2286" d="M395.276,417.982l1.463,38.542,2.785,1.741s4-42.3,1.915-42.3h-4.25a1.915,1.915,0,0,0-1.913,2.013Z" transform="translate(-311.811 -351.987)" fill="#2f2e41"/>
    <circle id="楕円形_50" data-name="楕円形 50" cx="1.741" cy="1.741" r="1.741" transform="translate(49.769 100.359)" fill="#6c63ff"/>
    <circle id="楕円形_51" data-name="楕円形 51" cx="1.741" cy="1.741" r="1.741" transform="translate(84.581 102.1)" fill="#6c63ff"/>
    <path id="パス_2287" data-name="パス 2287" d="M200.2,65.536V78.764h3.063l3.9-4.177-.522,4.177h13.542l-.835-4.177,1.671,4.177h2.158V65.536Z" transform="translate(-140.335 -45.939)" fill="#2f2e41"/>
    <ellipse id="楕円形_52" data-name="楕円形 52" cx="1.044" cy="1.915" rx="1.044" ry="1.915" transform="translate(56.732 31.433)" fill="#a0616a"/>
    <ellipse id="楕円形_53" data-name="楕円形 53" cx="1.044" cy="1.915" rx="1.044" ry="1.915" transform="translate(83.536 31.433)" fill="#a0616a"/>
    <path id="パス_2288" data-name="パス 2288" d="M383.2,546.727s-15.839-2.959-16.884,2.263,17.58,2.959,17.58,2.959Z" transform="translate(-291.482 -443.061)" fill="#a0616a"/>
    <path id="パス_2289" data-name="パス 2289" d="M416,428.775s37.944,30.286,30.982,37.6-33.419,5.222-33.419,5.222l1.74-8.7,15.317-1.741-7.659-7.658-6.962.7Z" transform="translate(-324.631 -360.964)" fill="#d0cde1"/>
    <path id="パス_2290" data-name="パス 2290" d="M234.28,586.155l4.874,3.829s3.481,10.792,8.7,7.659-4.874-14.273-4.874-14.273l-5.918-2.089Z" transform="translate(-198.958 -467.868)" fill="#a0616a"/>
    <path id="パス_2291" data-name="パス 2291" d="M156.351,410.148l-4.86,1.463s-33.78,24.994-35.173,31.956,6.614,10.792,6.614,10.792l30.286,14.273,3.133-8.355-14.273-7.31s1.044-2.089-3.133-2.437-4.874-4.874-4.874-4.874,8.355-12.88,12.88-10.1,5.918,4.874,5.918,4.874Z" transform="translate(-116.155 -347.907)" fill="#d0cde1"/>
    <path id="パス_2292" data-name="パス 2292" d="M269.217,618.692v1.166a2.561,2.561,0,0,1-.175.935,2.618,2.618,0,0,1-.186.384,2.581,2.581,0,0,1-2.219,1.26H180.852a2.582,2.582,0,0,1-2.219-1.26,2.627,2.627,0,0,1-.186-.384,2.562,2.562,0,0,1-.175-.935v-1.166a2.579,2.579,0,0,1,2.58-2.58H185.8v-.544a.107.107,0,0,1,.108-.107h2.58a.107.107,0,0,1,.108.107v.544H190.2v-.544a.107.107,0,0,1,.108-.107h2.58a.107.107,0,0,1,.108.107v.544h1.614v-.544a.107.107,0,0,1,.108-.107h2.58a.107.107,0,0,1,.108.107v.544h1.612v-.544a.107.107,0,0,1,.108-.107h2.58a.107.107,0,0,1,.108.107v.544h1.612v-.544a.107.107,0,0,1,.108-.107h2.58a.107.107,0,0,1,.108.107v.544h1.614v-.544a.107.107,0,0,1,.108-.107h2.58a.107.107,0,0,1,.108.107v.544h1.612v-.544a.107.107,0,0,1,.108-.107h20.21a.107.107,0,0,1,.108.107v.544h1.614v-.544a.107.107,0,0,1,.108-.107h2.58a.109.109,0,0,1,.108.107v.544h1.612v-.544a.107.107,0,0,1,.108-.107h2.58a.107.107,0,0,1,.108.107v.544h1.612v-.544a.107.107,0,0,1,.108-.107h2.58a.107.107,0,0,1,.108.107v.544H247.5v-.544a.107.107,0,0,1,.108-.107h2.58a.107.107,0,0,1,.106.107v.544h1.614v-.544a.107.107,0,0,1,.108-.107h2.58a.107.107,0,0,1,.108.107v.544h1.612v-.544a.107.107,0,0,1,.108-.107H259a.107.107,0,0,1,.108.107v.544h7.525a2.579,2.579,0,0,1,2.58,2.58Z" transform="translate(-159.697 -491.827)" fill="#3f3d56"/>
    <path id="パス_2293" data-name="パス 2293" d="M270.033,460.489H238.058v-.659h-14.5v.659H191.453a2.163,2.163,0,0,0-2.163,2.163v43.784a2.163,2.163,0,0,0,2.163,2.163h78.581a2.163,2.163,0,0,0,2.163-2.163V462.652A2.163,2.163,0,0,0,270.033,460.489Z" transform="translate(-167.42 -382.733)" fill="#3f3d56"/>
    <circle id="楕円形_54" data-name="楕円形 54" cx="4.803" cy="4.803" r="4.803" transform="translate(58.583 88.239)" fill="none" stroke="#d0cde1" stroke-miterlimit="10" stroke-width="2"/>
    <circle id="楕円形_55" data-name="楕円形 55" cx="4.803" cy="4.803" r="4.803" transform="translate(57.046 89.968)" fill="#d0cde1"/>
    <rect id="長方形_1203" data-name="長方形 1203" width="284.07" height="0.598" transform="translate(3.542 129.177)" fill="#3f3d56"/>
  </g>
</svg>
