<svg xmlns="http://www.w3.org/2000/svg" xmlns:xlink="http://www.w3.org/1999/xlink" width="137.886" height="114.932" viewBox="0 0 137.886 114.932">
  <defs>
    <linearGradient id="linear-gradient" x1="0.5" y1="1" x2="0.5" gradientUnits="objectBoundingBox">
      <stop offset="0" stop-color="gray" stop-opacity="0.251"/>
      <stop offset="0.54" stop-color="gray" stop-opacity="0.122"/>
      <stop offset="1" stop-color="gray" stop-opacity="0.102"/>
    </linearGradient>
  </defs>
  <g id="グループ_1025" data-name="グループ 1025" transform="translate(-0.004 0)">
    <ellipse id="楕円形_56" data-name="楕円形 56" cx="14.087" cy="1.389" rx="14.087" ry="1.389" transform="translate(83.918 112.155)" fill="#6c63ff" opacity="0.1"/>
    <path id="パス_2314" data-name="パス 2314" d="M158.414,37.6c6.2-2.5,13.757-.349,20.207,2.782,20.258,9.838,35.017,28.513,46.742,47.538,4.246,6.889,8.278,14.082,9.874,21.772,3.25,15.653-5.226,31.858-19.641,37.537a55,55,0,0,1-15.682,3.167c-9.591.787-19.522.474-29.036-2.439a88.518,88.518,0,0,1-19.36-9.13c-17.192-10.337-32.893-23.762-44.2-40.16-4.958-7.192-9.153-15.3-9.274-23.6s4.875-16.638,13.094-18.049c3.4-.583,6.993.024,10.5.648,5.163.92,10.4,1.888,15.5,1.487,5.273-.418,12.131-2.648,13.092-8.1C151.25,45.2,152.218,40.09,158.414,37.6Z" transform="translate(-98.04 -35.832)" fill="#6c63ff" opacity="0.1"/>
    <path id="パス_2315" data-name="パス 2315" d="M341.271,800.366s6.629-.4,5.847,4.245a1.131,1.131,0,0,1-.589,1.194s-.011-.345-.68-.228a2.986,2.986,0,0,1-.72.036,1.5,1.5,0,0,1-.88-.364h0s-1.864-.769-2.588-3.816c0,0-.537-.663-.515-.835l1.118.478a2.008,2.008,0,0,0-.081,1.478s.036-1.448.251-1.415c.043.007.581.275.581.275a3.306,3.306,0,0,0-.162,2.427s-.188-1.732.367-2.325l.788.46a3.471,3.471,0,0,0-.247,2.636,4.911,4.911,0,0,1,.412-2.525l.714.549a3.4,3.4,0,0,0-.282,2.415s.056-2.117.435-2.276a4.282,4.282,0,0,1,.72.777s-.495,1.038-.188,1.586c0,0,.188-1.409.343-1.416a4.712,4.712,0,0,1,.687,1.574,3.4,3.4,0,0,0-.537-1.663,1.875,1.875,0,0,1,.953.493s-.1-.661-1.106-.718a4.325,4.325,0,0,0-.652-.751,4.081,4.081,0,0,1,1.613.187,1.81,1.81,0,0,0-1.8-.341l-.7-.574a5.8,5.8,0,0,1,1.882.019,2.294,2.294,0,0,0-2.071-.15l-.766-.459a6.937,6.937,0,0,1,1.8-.155,2.76,2.76,0,0,0-2.023.032l-.549-.246s.824-.162,1.067-.188.254-.092.254-.092a2.859,2.859,0,0,0-1.551.172A6.377,6.377,0,0,1,341.271,800.366Z" transform="translate(-307.75 -694.768)" fill="#6c63ff"/>
    <ellipse id="楕円形_57" data-name="楕円形 57" cx="4.692" cy="0.793" rx="4.692" ry="0.793" transform="translate(33.394 110.65)" fill="#6c63ff" opacity="0.1"/>
    <path id="パス_2316" data-name="パス 2316" d="M276.951,777.639s3.737-.225,3.3,2.394a.636.636,0,0,1-.331.673s-.007-.194-.383-.128a1.665,1.665,0,0,1-.405.019.832.832,0,0,1-.5-.2h0a2.98,2.98,0,0,1-1.461-2.152s-.3-.375-.291-.471l.632.275a1.135,1.135,0,0,0-.047.834s.021-.817.137-.8c.025,0,.328.158.328.158a1.873,1.873,0,0,0-.091,1.374s-.107-.977.206-1.312l.444.26a1.962,1.962,0,0,0-.137,1.486,2.789,2.789,0,0,1,.232-1.423l.4.313a1.886,1.886,0,0,0-.158,1.361s.032-1.194.246-1.283a2.448,2.448,0,0,1,.405.438s-.275.585-.106.894c0,0,.106-.794.194-.8a2.626,2.626,0,0,1,.386.887,1.923,1.923,0,0,0-.3-.938,1.049,1.049,0,0,1,.537.275s-.054-.372-.624-.405a2.426,2.426,0,0,0-.367-.423,2.3,2.3,0,0,1,.909.1,1.022,1.022,0,0,0-1.014-.192l-.4-.324a3.289,3.289,0,0,1,1.062.011,1.292,1.292,0,0,0-1.169-.084l-.431-.26a3.928,3.928,0,0,1,1.012-.087,1.551,1.551,0,0,0-1.14.018l-.309-.137s.466-.092.6-.106.144-.052.144-.052a1.618,1.618,0,0,0-.875.1A3.614,3.614,0,0,1,276.951,777.639Z" transform="translate(-252.31 -675.166)" fill="#6c63ff"/>
    <ellipse id="楕円形_58" data-name="楕円形 58" cx="2.645" cy="0.448" rx="2.645" ry="0.448" transform="translate(24.569 105.319)" fill="#6c63ff" opacity="0.1"/>
    <path id="パス_2317" data-name="パス 2317" d="M946.3,795.962s4.512-.275,3.983,2.884a.775.775,0,0,1-.4.813s-.008-.235-.463-.155a2.027,2.027,0,0,1-.49.023,1.009,1.009,0,0,1-.6-.247h0a3.577,3.577,0,0,1-1.762-2.6s-.365-.452-.35-.567l.761.324a1.369,1.369,0,0,0-.055,1.007s.025-.986.17-.961c.03,0,.4.19.4.19a2.247,2.247,0,0,0-.11,1.648s-.128-1.178.25-1.582l.536.312a2.365,2.365,0,0,0-.168,1.8,3.4,3.4,0,0,1,.275-1.718l.486.379a2.325,2.325,0,0,0-.192,1.648s.04-1.439.3-1.549a2.966,2.966,0,0,1,.489.529s-.337.707-.128,1.081c0,0,.128-.961.233-.961a3.19,3.19,0,0,1,.467,1.071,2.31,2.31,0,0,0-.364-1.132,1.277,1.277,0,0,1,.648.335s-.066-.449-.754-.489a2.929,2.929,0,0,0-.442-.511,2.778,2.778,0,0,1,1.1.126,1.237,1.237,0,0,0-1.224-.231l-.479-.391a3.956,3.956,0,0,1,1.281.012,1.559,1.559,0,0,0-1.411-.1l-.522-.312a4.753,4.753,0,0,1,1.224-.106,1.872,1.872,0,0,0-1.374.022l-.374-.168s.562-.111.727-.128.173-.063.173-.063a1.95,1.95,0,0,0-1.055.117A4.561,4.561,0,0,1,946.3,795.962Z" transform="translate(-829.714 -690.971)" fill="#6c63ff"/>
    <ellipse id="楕円形_59" data-name="楕円形 59" cx="3.193" cy="0.54" rx="3.193" ry="0.54" transform="translate(116.499 108.43)" fill="#6c63ff" opacity="0.1"/>
    <path id="パス_2318" data-name="パス 2318" d="M708.981,416.749a9.79,9.79,0,0,1-.15-1.464c0-.589-.8-1.111-.8-1.111s-.494-1.144-.824-1.313a10.084,10.084,0,0,1-1.347-1.666,1.361,1.361,0,0,0-.306-.808,11.6,11.6,0,0,1-.834-1.258h0c-.137-.168-.069-.286-.275-1.262a1.517,1.517,0,0,0-.038-.147.193.193,0,0,0-.022-.063,1.648,1.648,0,0,0,.389-1.707.686.686,0,0,0-.195-.3c-.232-.19-.6-.111-.842-.291l.254-1.124c.061-.275.092-.622-.148-.771a1.251,1.251,0,0,0-.283-.095,1.334,1.334,0,0,1-.758-.992,3.4,3.4,0,0,1-.082-1.236c.047-.4.163-.786.206-1.185a3.255,3.255,0,0,0-.5-2.107,1.623,1.623,0,0,0-.666-.629c-.254-.114-.549-.137-.787-.275-.511-.326-.485-1.1-.893-1.542a1.762,1.762,0,0,0-1.725-.29,5.209,5.209,0,0,1-1.8.347c-.393-.044-.761-.222-1.155-.264a1.217,1.217,0,0,0-.338.015V395.2a.733.733,0,0,0-.628.49.748.748,0,0,0-.019.2c0,.161.038.328.041.482a.459.459,0,0,1-.111.339c-.078.084-.194.128-.275.214a.344.344,0,0,0-.1.253c0,.244.3.46.51.559h.008c-.055.055-.11.113-.161.172a3.617,3.617,0,0,0-.909,2.4,3.667,3.667,0,0,0,2.231,3.349l-.029.089a5.117,5.117,0,0,1-.2.519,1.029,1.029,0,0,0-.863.1,2.178,2.178,0,0,1-1.365.2,18.544,18.544,0,0,0-2.507-.253c-.172.067-.511-.235-.732.169s-.324.622-.549.724-.614.42-.562.488-.563.471-.563.471a2.8,2.8,0,0,1-.835.622,4.9,4.9,0,0,0-.955.489l-.751.588s-.562.085-.391-.3-.308-.875-.308-.875a13.883,13.883,0,0,1-.955-2.335,11.878,11.878,0,0,0-.784-2.1l-.1-.01-.044-.125c-.144-.405-.331-.9-.474-1.194-.275-.556-.444-.614-.444-.614s-3.307-2.483-5.456-1.727,3.921,3.012,4.467,3.248a1.03,1.03,0,0,1,.424.661,2.827,2.827,0,0,0-1.174,1.056,22.46,22.46,0,0,1,1.347,3.634,13.964,13.964,0,0,0,.9,2.747,1.916,1.916,0,0,0,2.08,1.413s2.421.445,2.95,0a4.185,4.185,0,0,1,1.262-.845,1,1,0,0,0,.477-.337s-.8,5.048-1.194,5.486-3.864,6.105-2.618,7.119a24.886,24.886,0,0,0,3.119,2.06c.106.052.423-.477.876-.852v.293a21.737,21.737,0,0,0,.643,5.769,6.388,6.388,0,0,1,.324,2.961,2.334,2.334,0,0,0,.922.221c.016.066.036.137.054.206a27.434,27.434,0,0,0,1.037,3.36,13.662,13.662,0,0,1,.647,2.946,20.46,20.46,0,0,1,.137,2.507,14.753,14.753,0,0,0,.338,2.2h0c-.137,1.578-.4,4.621-.442,5.721h0v.08q0,.019,0,.037v.067h0a1.015,1.015,0,0,0,.008.207.672.672,0,0,1-.023.313,5.471,5.471,0,0,1-.37.882,4.214,4.214,0,0,0-.165.426.769.769,0,0,0-.4.566c-.17.657-.426,2.472-.426,2.472a4.474,4.474,0,0,1-.306,1.364,1.406,1.406,0,0,0,1.04,2.036,2.1,2.1,0,0,0,2.079-.769l-.051-4.406v-.008a.658.658,0,0,0,.076-.119v-.011c.01-.021.021-.043.03-.067l.012-.033.022-.054a.078.078,0,0,1,0-.019,2.911,2.911,0,0,0,.124-1.312v-.185a.522.522,0,0,1,.008-.091v-.016l.008-.054v-.023a.1.1,0,0,1,.011-.055.074.074,0,0,1,0-.014c.014-.063.03-.137.048-.2v-.015l.021-.066h0c.021-.07.044-.137.069-.212v-.014a.194.194,0,0,1,.023-.065v-.008c.025-.067.051-.137.076-.2l.007-.018.022-.055.007-.016.052-.122h0l.4,1.243a3.144,3.144,0,0,1,.1,1.144c-.12.218.137,1.128.306,1.144l-.158,1.144a17.528,17.528,0,0,0-.152,1.9c-.011.073-.022.137-.03.181a4.127,4.127,0,0,0,.154,1.5,2.01,2.01,0,0,0,2.95.124s.187-.842,0-1.01-.1-.775-.1-.775.085-1.5.1-2.592a3.425,3.425,0,0,0-.894-2.06l-.051.045a3.236,3.236,0,0,1-.316-1.152c.069-.387-.188-4.476-.188-4.476a24.255,24.255,0,0,0,.06-3.3h0c.022-.185.043-.368.063-.549.1-.879.187-1.63.22-2.025h0v-.047c.008-.106.012-.181.011-.217,0-.137,0-.294.014-.466.032-.472.106-1,.106-1l.357-2.172a6.789,6.789,0,0,1,.666-1.648l.047-.074h0c.015-.026.03-.055.047-.085l.007-.012c.015-.029.032-.059.047-.091l.007-.012c.055-.109.114-.234.176-.371,0-.011.01-.021.014-.032l.047-.1a.106.106,0,0,1,.018-.041c.007-.014.029-.07.044-.1a.4.4,0,0,0,.018-.043c.018-.041.037-.084.055-.128l.026-.063c.012-.032.026-.063.04-.095l.033-.084c.01-.021.018-.041.026-.062l.037-.095c0-.014.012-.029.018-.043.1-.243.191-.483.275-.7h0l.076-.2c.874.054,1.467.1,1.467.1a20.121,20.121,0,0,0,.187-3.263,12.125,12.125,0,0,1,.216-2.61c.012-.067.023-.128.034-.183l.023.019c.427.337.734-.775.734-.775s-.115-1.037-.275-2.294l-.017-.125a6.458,6.458,0,0,0,.746.114s.137-.012.326-.036a9.009,9.009,0,0,0,1.64.742l.908-1.676a6.82,6.82,0,0,1,.6-.993,9.052,9.052,0,0,0,1.228-1.615,5.685,5.685,0,0,1,.665-1.886A4.163,4.163,0,0,0,708.981,416.749Zm-3.785,1.279c-.359.151-.7.993-.716,1.246s-.393,1.363-.784,1.5a5.227,5.227,0,0,0-1.161.86c-.113.01-.24.025-.374.047a13.089,13.089,0,0,0-.393-2.118c-.275-.505.3-2.121.3-2.121a5.135,5.135,0,0,1,.412-2.019c.356-.387.275-1.364.275-1.364s.085-.4.12-.588.507,0,.511,0h0a2.235,2.235,0,0,1,1.058,1.261,7.236,7.236,0,0,0,1.143,2.07s-.154.455,0,.687S705.554,417.877,705.2,418.028Z" transform="translate(-596.89 -345.103)" fill="url(#linear-gradient)"/>
    <path id="パス_2319" data-name="パス 2319" d="M707,449.521a2.747,2.747,0,0,1,2.747-1.294v1.966h-1.194l-.934-.236Z" transform="translate(-623.354 -390.979)" fill="#4c4981"/>
    <path id="パス_2320" data-name="パス 2320" d="M707,449.521a2.747,2.747,0,0,1,2.747-1.294v1.966h-1.194l-.934-.236Z" transform="translate(-623.354 -390.979)" opacity="0.1"/>
    <path id="パス_2321" data-name="パス 2321" d="M684,425.03l-1.463,1.025s-.012-.2-.049-.485c-.073-.53-.236-1.325-.589-1.479-.537-.236-6.516-2.486-4.4-3.243s5.375,1.724,5.375,1.724.167.058.435.611c.137.291.326.787.467,1.192C683.911,424.741,684,425.03,684,425.03Z" transform="translate(-597.518 -367.261)" fill="#ae6e79"/>
    <path id="パス_2322" data-name="パス 2322" d="M712.18,431.588l.166-.078.467.533-.382.814-.651-.261.151-.651Z" transform="translate(-614.011 -372.241)" fill="#4c4981"/>
    <path id="パス_2323" data-name="パス 2323" d="M787.5,810.995s-.42-.049-.588.606-.42,2.472-.42,2.472a4.469,4.469,0,0,1-.3,1.361,1.409,1.409,0,0,0,1.025,2.031,2.066,2.066,0,0,0,2.049-.768l-.051-4.4Z" transform="translate(-691.544 -703.944)" fill="#444053"/>
    <path id="パス_2324" data-name="パス 2324" d="M819.052,812.44a3.417,3.417,0,0,1,.882,2.052c-.016,1.091-.1,2.586-.1,2.586s-.083.606.1.773,0,1.008,0,1.008a1.962,1.962,0,0,1-2.906-.124,4.2,4.2,0,0,1-.151-1.493c.107-.585.407-3.215.407-3.215Z" transform="translate(-718.116 -705.191)" fill="#444053"/>
    <path id="パス_2325" data-name="パス 2325" d="M796.882,660.4a28.035,28.035,0,0,1-1.294,3.123,6.724,6.724,0,0,0-.654,1.648l-.353,2.166a12.127,12.127,0,0,0-.118,1.461c.017.487-.874,7.591-.874,7.591l-1.411,1.8a4.609,4.609,0,0,0-.52,1.785,2.593,2.593,0,0,1-.275,1.612s-.033,1.648-.084,2.015.185,1.412,0,1.6-2.654.1-2.721-.2a8.96,8.96,0,0,1,.3-1.764l.218-1.411s.437-.772.337-1.025.184-.839.2-.89.471-.874.387-1.192.529-7.1.529-7.1l1.729-12.143Z" transform="translate(-693.721 -573.241)" fill="#ae6e79"/>
    <path id="パス_2326" data-name="パス 2326" d="M796.882,660.422s-.137.382-.325.883a17.109,17.109,0,0,1-.968,2.24,6.811,6.811,0,0,0-.655,1.648l-.353,2.167a12.173,12.173,0,0,0-.117,1.461c0,.192-.129,1.419-.294,2.832-.254,2.161-.58,4.759-.58,4.759l-1.411,1.8s-.071.137-.161.354a3.294,3.294,0,0,0-.36,1.426,2.6,2.6,0,0,1-.275,1.612s-.034,1.648-.084,2.015.185,1.411,0,1.6-2.654.1-2.721-.2a8.979,8.979,0,0,1,.3-1.764l.218-1.412s.437-.772.335-1.025.185-.839.2-.89.471-.874.387-1.192c-.065-.243.275-4.222.433-6.109.054-.593.088-.979.088-.979l1.487-10.447.121-.842.121-.854Z" transform="translate(-693.721 -573.258)" opacity="0.1"/>
    <path id="パス_2327" data-name="パス 2327" d="M792.274,690.907a5.932,5.932,0,0,1-2.71.253c-.341-.2,0-2.7,0-2.7l.155-1.141c-.166-.018-.419-.924-.3-1.143a3.2,3.2,0,0,0-.1-1.141l-.4-1.236-.242-.757a33.613,33.613,0,0,1-1.315-5.185,15.011,15.011,0,0,1-.332-2.189,20.758,20.758,0,0,0-.137-2.5,14.211,14.211,0,0,0-.637-2.939,27.687,27.687,0,0,1-1.022-3.353c-.151-.581-.255-1-.255-1s2.538-.213,4.078-.287c.707-.034,1.2-.038,1.147.019a2.091,2.091,0,0,0-.07.811,21.165,21.165,0,0,0,.338,3.725,12.857,12.857,0,0,1,.37,3.241,10.229,10.229,0,0,0-.067,1.68,7.553,7.553,0,0,1,.3,1.823,24.645,24.645,0,0,1-.058,3.281s.251,4.082.184,4.468.537,1.6.537,1.831.168,1.831.168,1.831S792.262,690.723,792.274,690.907Z" transform="translate(-690.623 -578.483)" fill="#ae6e79"/>
    <path id="パス_2328" data-name="パス 2328" d="M808.169,448.264l-.288.312-.188.2-1.1,1.181-2.839.32-1.511-.4-.374-.1s0-.758.067-1.667c.1-1.166.326-2.582.874-2.968a2.182,2.182,0,0,0,.639-.809,4.55,4.55,0,0,0,.275-.678c.011-.03.019-.059.029-.089a7.571,7.571,0,0,0,.267-1.246s.363-.2.867-.434c1.314-.614,3.585-1.461,2.8.434a7.414,7.414,0,0,0-.3.852c-.012.043-.023.085-.033.126a2.757,2.757,0,0,0,.107,2.048h0a1.282,1.282,0,0,0,.114.174.917.917,0,0,0,.191.194l.327,2.075.027.172Z" transform="translate(-705.193 -384.902)" fill="#ae6e79"/>
    <path id="パス_2329" data-name="パス 2329" d="M819.337,443.055c-.15.36.073-.294,0,0-.6.426-2.01,1.639-2.8,1.639a2.2,2.2,0,0,1-1.155-.3,7.482,7.482,0,0,0,.3-1.334S820.429,440.434,819.337,443.055Z" transform="translate(-716.848 -385.537)" opacity="0.1"/>
    <path id="パス_2330" data-name="パス 2330" d="M807,411.3a3.665,3.665,0,0,1-3.279,3.641c-.126.012-.254.021-.383.021A3.662,3.662,0,1,1,807,411.3Z" transform="translate(-703.304 -355.992)" fill="#ae6e79"/>
    <path id="パス_2331" data-name="パス 2331" d="M799.855,495.6l-.522,1.361s-.424.018-1.086.038c-2.235.071-7.159.162-7.379-.412a1.463,1.463,0,0,1-.077-.452,8.855,8.855,0,0,1,.379-2.218s.235-2.688.235-2.8-.2-2-.2-2l.4-1.511,1.125-.79s.5.773.806.839a2.1,2.1,0,0,1,.706.438s.99.6,1.31.268,2.8-1.814,2.8-1.814l1.31,1.445Z" transform="translate(-695.635 -424.054)" opacity="0.1"/>
    <path id="パス_2332" data-name="パス 2332" d="M799.881,497.117l-.522,1.36s-.424.019-1.086.04h-.065c-.286.01-.613.019-.961.026a41.366,41.366,0,0,1-5.5-.137c-.481-.069-.8-.168-.847-.3a1.218,1.218,0,0,1-.06-.25c-.008-.063-.014-.137-.016-.2a8.857,8.857,0,0,1,.379-2.218s.235-2.688.235-2.8-.2-2-.2-2l.4-1.511.773-.541.352-.247a5.285,5.285,0,0,0,.386.508,1.027,1.027,0,0,0,.42.331,2.1,2.1,0,0,1,.706.438s.99.6,1.31.268a25.465,25.465,0,0,1,2.452-1.6c.214-.13.353-.212.353-.212l.176.2,1.134,1.25Z" transform="translate(-695.661 -425.366)" fill="#fff"/>
    <path id="パス_2333" data-name="パス 2333" d="M718.152,448.085l-1.463,1.025s-.012-.2-.049-.485a2.96,2.96,0,0,0,1.288-1.195C718.063,447.8,718.152,448.085,718.152,448.085Z" transform="translate(-631.67 -390.316)" opacity="0.1"/>
    <path id="パス_2334" data-name="パス 2334" d="M714.924,452.408l-.318-.085a2.77,2.77,0,0,1-.824.622,4.814,4.814,0,0,0-.939.486l-.74.588s-.55.085-.386-.3-.3-.874-.3-.874a13.851,13.851,0,0,1-.941-2.335,11.74,11.74,0,0,0-.777-2.1s-.975,1.9-2.755,1.294a22.522,22.522,0,0,1,1.327,3.628,13.949,13.949,0,0,0,.89,2.737,1.9,1.9,0,0,0,2.049,1.412s2.386.444,2.906,0a4.213,4.213,0,0,1,1.236-.843,1.02,1.02,0,0,0,.47-.335v-2Z" transform="translate(-623.302 -391.162)" fill="#4c4981"/>
    <path id="パス_2335" data-name="パス 2335" d="M743.3,491.33s.42,1.563.151,1.731Z" transform="translate(-654.668 -428.186)" opacity="0.1"/>
    <path id="パス_2336" data-name="パス 2336" d="M798.256,558.714c-2.235.071-7.159.161-7.379-.412a1.463,1.463,0,0,1-.077-.452l7.3.385Z" transform="translate(-695.644 -485.57)" opacity="0.1"/>
    <path id="パス_2337" data-name="パス 2337" d="M793.8,660.4s-.137.382-.326.883c-.927-.056-2.155-.115-3.321-.124-.412,0-.816,0-1.2.014a9.029,9.029,0,0,0-1.957.217,5.188,5.188,0,0,1-1.744.225c-.151-.581-.256-1-.256-1s2.538-.213,4.078-.287l.121-.854Z" transform="translate(-690.641 -573.241)" opacity="0.1"/>
    <path id="パス_2338" data-name="パス 2338" d="M785.355,567.733l-.286.6s-.04.18-.091.466a11.9,11.9,0,0,0-.212,2.61,20.643,20.643,0,0,1-.185,3.258s-6.181-.521-7.994,0a3.666,3.666,0,0,1-2.706,0,6.5,6.5,0,0,0-.319-2.956c-.367-.687-.625-3.752-.633-5.769a5.084,5.084,0,0,1,.164-1.777,53.034,53.034,0,0,0,1.948-4.989l.36.019.962.051,5.467.288.858.045.091.275Z" transform="translate(-680.228 -486.717)" fill="#444053"/>
    <path id="パス_2339" data-name="パス 2339" d="M867.347,591.743l.051.538s-2.707-.882-2.57-1.966,0-.961,0-.961l2.176.184Z" transform="translate(-759.5 -512.743)" fill="#4c4981"/>
    <path id="パス_2340" data-name="パス 2340" d="M867.347,591.743l.051.538s-2.707-.882-2.57-1.966,0-.961,0-.961l2.176.184Z" transform="translate(-759.5 -512.743)" opacity="0.1"/>
    <path id="パス_2341" data-name="パス 2341" d="M753.871,491.747a2.412,2.412,0,0,0,.953.5.619.619,0,0,1-.275-.137c-.194-.137-.378-.287-.565-.433a1.772,1.772,0,0,0-.525-.363A2.89,2.89,0,0,0,753.871,491.747Z" transform="translate(-663.433 -428.169)" opacity="0.1"/>
    <path id="パス_2342" data-name="パス 2342" d="M752.069,495.425a1.215,1.215,0,0,1,.209.331,2,2,0,0,1-.015,1.04l-.434-1.047c-.076-.179-.151-.357-.242-.527-.04-.073-.29-.376-.261-.44C751.4,494.6,751.987,495.325,752.069,495.425Z" transform="translate(-661.589 -431.14)" opacity="0.1"/>
    <path id="パス_2343" data-name="パス 2343" d="M834,539.519a1.4,1.4,0,0,0,.79-.369c-.446.056-.869.232-1.309.324a1.945,1.945,0,0,1-1.22-.113A3,3,0,0,0,834,539.519Z" transform="translate(-731.409 -469.438)" opacity="0.1"/>
    <path id="パス_2344" data-name="パス 2344" d="M821.979,511.108a.306.306,0,0,1-.227-.056q-.5-.288-.992-.6a6.593,6.593,0,0,1-.971-.67A4.941,4.941,0,0,0,821.979,511.108Z" transform="translate(-720.652 -444.102)" opacity="0.1"/>
    <path id="パス_2345" data-name="パス 2345" d="M836.773,543.306a2.092,2.092,0,0,0,.525-.043.7.7,0,0,0,.431-.283.248.248,0,0,0-.183.029,3.081,3.081,0,0,1-1.687.2A2.436,2.436,0,0,0,836.773,543.306Z" transform="translate(-734.515 -472.737)" opacity="0.1"/>
    <path id="パス_2346" data-name="パス 2346" d="M792.5,601.256a5.509,5.509,0,0,1-1.073.21,6.467,6.467,0,0,1-.849-.016l-1.374-.086-.687-.044c-.081,0-.412,0-.249-.163.082-.08.541-.029.659-.033q.342-.011.687-.012c.455,0,.911,0,1.365.027C791.49,601.162,791.991,601.2,792.5,601.256Z" transform="translate(-693.422 -522.888)" opacity="0.1"/>
    <path id="パス_2347" data-name="パス 2347" d="M788,606.318a5.552,5.552,0,0,0-.775.159,5.151,5.151,0,0,1-.81.032,4.519,4.519,0,0,1-1.562-.319C785.9,606.243,786.949,606.275,788,606.318Z" transform="translate(-690.511 -527.27)" opacity="0.1"/>
    <path id="パス_2348" data-name="パス 2348" d="M783.336,612.084a2.253,2.253,0,0,1,.3.082,3.515,3.515,0,0,0,1.786-.126,1.047,1.047,0,0,1-.677.376,3.138,3.138,0,0,1-1.319.048c-.137-.028-.482-.077-.549-.22C782.763,612.034,783.207,612.063,783.336,612.084Z" transform="translate(-688.793 -532.317)" opacity="0.1"/>
    <path id="パス_2349" data-name="パス 2349" d="M804.574,618.352a4.5,4.5,0,0,1,.514.137,4.345,4.345,0,0,0,1.985-.21,9.241,9.241,0,0,1,2.4-.223,2.375,2.375,0,0,0-.515.169c-.185.056-.374.109-.562.155-.369.091-.745.165-1.122.218a11.539,11.539,0,0,1-2.3.1,3.335,3.335,0,0,1-1.262-.161A1.391,1.391,0,0,1,804.574,618.352Z" transform="translate(-706.781 -537.501)" opacity="0.1"/>
    <path id="パス_2350" data-name="パス 2350" d="M778.268,464.522a8.87,8.87,0,0,1-.218,2.253c-.08.22-.2.625-.338,1.08-.147.5-.308,1.069-.431,1.511s-.206.739-.206.739-.567,4.621-.714,6.822a.537.537,0,0,1-.008.115c-.008.124-.022.253-.043.386-.327,2.187-2.213,5.559-2.846,5.828a1.885,1.885,0,0,0-.533.367,5.086,5.086,0,0,1,.164-1.777,53.015,53.015,0,0,0,1.948-4.989l.36.019c-.008-.063-.014-.137-.016-.2a8.855,8.855,0,0,1,.379-2.218s.235-2.688.235-2.8-.2-2-.2-2l.4-1.511.773-.541c.1-1.166.326-2.582.874-2.968a2.182,2.182,0,0,0,.639-.809c.109.015-.089-.081-.089-.081Z" transform="translate(-680.228 -404.386)" opacity="0.1"/>
    <path id="パス_2351" data-name="パス 2351" d="M752.226,462.782a1,1,0,0,0-.85.1,2.125,2.125,0,0,1-1.345.2,18.226,18.226,0,0,0-2.472-.253c-.172.067-.5-.235-.723.169s-.319.621-.537.721-.606.42-.55.488-.549.47-.549.47l1.225,3.983s-.79,5.038-1.176,5.475-3.813,6.1-2.586,7.105a24.412,24.412,0,0,0,3.074,2.06c.137.067.621-.839,1.293-1.125s2.755-4.066,2.884-6.215.722-6.936.722-6.936.723-2.621.974-3.327a8.871,8.871,0,0,0,.219-2.253Z" transform="translate(-653.891 -403.513)" fill="#4c4981"/>
    <path id="パス_2352" data-name="パス 2352" d="M840.953,492.933l-.286.6s-.04.18-.091.466a.256.256,0,0,1-.137-.062c-.42-.337-2.884-2.872-3.007-5.123-.086-1.661-.045-3.092-.018-3.729.008-.2.016-.321.016-.347h0s1.915-2.319,1.7-3.14-.723-5.219-.723-5.219l-.074-.577-.128-.975-.3-2.36.316.074a.916.916,0,0,0,.191.194l.327,2.075,1.134,1.25.185,7.609-.522,1.36s-.424.019-1.086.04h-.065Z" transform="translate(-735.827 -411.917)" opacity="0.1"/>
    <path id="パス_2353" data-name="パス 2353" d="M843.166,479.742s-.47-.185-.5,0-.118.587-.118.587.084.975-.275,1.361a5.063,5.063,0,0,0-.412,2.015s-.566,1.612-.3,2.117a13.58,13.58,0,0,1,.4,2.2c.1.687.191,1.441.275,2.13.152,1.253.266,2.29.266,2.29s-.3,1.108-.724.772-2.884-2.872-3.005-5.123c-.082-1.581-.049-2.954-.022-3.632.011-.287.022-.449.022-.449s1.915-2.319,1.7-3.141-.723-5.219-.723-5.219l-.088-.68-.095-.731-.022-.161-.3-2.335h0a10.444,10.444,0,0,1,2.187.687,7.513,7.513,0,0,0,1.786.6,1.343,1.343,0,0,1,.953.978c.015.047.026.1.037.147.2.975.137,1.092.275,1.261A37.745,37.745,0,0,1,843.166,479.742Z" transform="translate(-736.981 -411.287)" fill="#4c4981"/>
    <path id="パス_2354" data-name="パス 2354" d="M853.82,592.38c-.687-.137-1.706-.455-1.682-1.155.021-.655.809-.891,1.406-.975C853.64,590.934,853.735,591.691,853.82,592.38Z" transform="translate(-748.556 -513.52)" opacity="0.1"/>
    <path id="パス_2355" data-name="パス 2355" d="M856.58,591.1c-.027.059-.137.11-.294.155a7.927,7.927,0,0,1-1.117.183s-2.335-.185-2.3-1.244c.025-.76,1.08-.961,1.672-1.007a3.864,3.864,0,0,1,.394-.016S856.681,590.882,856.58,591.1Z" transform="translate(-749.186 -512.587)" fill="#ae6e79"/>
    <path id="パス_2356" data-name="パス 2356" d="M866.287,591.1c-.027.059-.137.11-.294.155-.608-.815-1.457-1.86-1.874-1.952l.126-.117a3.864,3.864,0,0,1,.394-.016S866.388,590.882,866.287,591.1Z" transform="translate(-758.893 -512.587)" opacity="0.1"/>
    <path id="パス_2357" data-name="パス 2357" d="M866.338,497.69l.687.1a11.915,11.915,0,0,0,.824,1.26,1.374,1.374,0,0,1,.3.806,10.323,10.323,0,0,0,1.327,1.662c.319.168.806,1.31.806,1.31s.79.521.79,1.108a9.868,9.868,0,0,0,.151,1.461,4.145,4.145,0,0,1-.453,1.648,5.628,5.628,0,0,0-.655,1.879,8.887,8.887,0,0,1-1.209,1.612,6.834,6.834,0,0,0-.588.992l-.89,1.68s-1.882-2.772-2.57-2.923a5.41,5.41,0,0,1,1.158-.874c.386-.135.757-1.236.773-1.494s.353-1.092.7-1.236.538-.3.387-.538a1,1,0,0,1,0-.687,7.253,7.253,0,0,1-1.126-2.06,2.243,2.243,0,0,0-1.041-1.26l-.52-1.277Z" transform="translate(-759.532 -433.673)" fill="#4c4981"/>
    <path id="パス_2358" data-name="パス 2358" d="M889.868,540.114a2.18,2.18,0,0,1,1.356-.514,1.652,1.652,0,0,0-.887.347,2.1,2.1,0,0,0-.246.313c-.08.114-.728.938-.824.808C889.106,540.877,889.738,540.225,889.868,540.114Z" transform="translate(-780.564 -469.827)" opacity="0.1"/>
    <path id="パス_2359" data-name="パス 2359" d="M882.73,520.763a.581.581,0,0,0,.479-.339,1.906,1.906,0,0,0,.15-.6,8.885,8.885,0,0,1,.207-1.021.472.472,0,0,0-.029-.412,1.4,1.4,0,0,0-.148-.3,1.83,1.83,0,0,0-.21.641c-.063.228-.121.457-.176.687C882.974,519.528,882.746,520.763,882.73,520.763Z" transform="translate(-774.947 -451.271)" opacity="0.1"/>
    <path id="パス_2360" data-name="パス 2360" d="M816.031,418.717a1.414,1.414,0,0,1-.232.239c-.275.218-.639.4-.673.747a.806.806,0,0,1-.041.331c-.088.151-.3.137-.475.108a.824.824,0,0,1-.4-.148c-.18-.154-.2-.428-.334-.622a.847.847,0,0,0-.687-.3c-.257-.008-.512.049-.769.06a2.111,2.111,0,0,1-.493-.033,1.564,1.564,0,0,1-.159-.033,2.054,2.054,0,0,1-.335-.114,1.472,1.472,0,0,1-.163-.077,2.172,2.172,0,0,1-.474-.33,1.178,1.178,0,0,1-.44-.891c.012-.21.107-.4.137-.611a1.916,1.916,0,0,0-.718-1.578c-.17-.169-.352-.332-.522-.5a2.512,2.512,0,0,1-.614-.876,2.61,2.61,0,0,1-.11-1.1,7.572,7.572,0,0,0,.032-1.129,3.967,3.967,0,0,0-2.406-2.915l-.051-.026a3.66,3.66,0,1,1,4.924,5.357c-.012.043-.023.085-.033.126a2.757,2.757,0,0,0,.107,2.048h0a10.444,10.444,0,0,1,2.187.687,7.515,7.515,0,0,0,1.786.6A1.343,1.343,0,0,1,816.031,418.717Z" transform="translate(-708.842 -356.006)" opacity="0.1"/>
    <path id="パス_2361" data-name="パス 2361" d="M803.716,397.72c.076-.087.19-.13.266-.214.238-.258,0-.68.087-1.021a.847.847,0,0,1,.945-.5c.387.04.75.218,1.137.262a5,5,0,0,0,1.771-.346,1.7,1.7,0,0,1,1.7.288c.4.449.376,1.214.879,1.54a4.993,4.993,0,0,0,.776.275,1.594,1.594,0,0,1,.657.628,3.288,3.288,0,0,1,.5,2.1c-.043.4-.158.786-.2,1.184a3.446,3.446,0,0,0,.082,1.236,1.317,1.317,0,0,0,.746.989,1.259,1.259,0,0,1,.275.095c.238.148.206.5.146.769l-.245,1.128c.235.179.6.1.824.29a.686.686,0,0,1,.192.3,1.648,1.648,0,0,1-.493,1.8c-.275.218-.639.4-.673.746a.775.775,0,0,1-.041.331c-.086.151-.3.137-.475.109a.825.825,0,0,1-.4-.148c-.181-.154-.2-.429-.334-.622a.85.85,0,0,0-.687-.3c-.258-.008-.512.049-.771.062a2.277,2.277,0,0,1-1.619-.585,1.183,1.183,0,0,1-.441-.893c.012-.209.107-.4.137-.611a1.921,1.921,0,0,0-.718-1.578,4.187,4.187,0,0,1-1.137-1.38,8.6,8.6,0,0,1-.078-2.221,3.966,3.966,0,0,0-2.406-2.916C803.853,398.387,803.421,398.056,803.716,397.72Z" transform="translate(-706.7 -345.782)" fill="#444053"/>
    <path id="パス_2362" data-name="パス 2362" d="M812.631,410.381c-.181-.155-.2-.429-.334-.622a.853.853,0,0,0-.687-.3c-.258-.008-.514.049-.771.062a2.271,2.271,0,0,1-1.625-.587,1.178,1.178,0,0,1-.44-.891c.012-.21.107-.405.137-.611a1.919,1.919,0,0,0-.718-1.58,4.2,4.2,0,0,1-1.137-1.38,8.973,8.973,0,0,1-.077-2.221,3.972,3.972,0,0,0-2.406-2.916c-.266-.13-.7-.461-.4-.8.074-.087.188-.13.265-.214.238-.257,0-.68.088-1.019a.559.559,0,0,1,.087-.188.733.733,0,0,0-.62.49c-.084.341.151.762-.086,1.021-.077.084-.191.128-.266.213-.3.337.137.669.4.8a3.968,3.968,0,0,1,2.406,2.916,8.607,8.607,0,0,0,.078,2.222,4.145,4.145,0,0,0,1.137,1.38,1.9,1.9,0,0,1,.718,1.578,5.271,5.271,0,0,0-.137.611,1.18,1.18,0,0,0,.441.891,2.265,2.265,0,0,0,1.624.586c.258-.012.512-.069.771-.062a.854.854,0,0,1,.687.3c.137.194.152.468.334.622a.824.824,0,0,0,.4.147c.172.032.389.043.475-.107a.371.371,0,0,0,.039-.2A.789.789,0,0,1,812.631,410.381Z" transform="translate(-706.632 -346.908)" opacity="0.1"/>
    <path id="パス_2363" data-name="パス 2363" d="M578.52,86.92h-9.5V77.558h9.508ZM578.383,72.8h-9.226c0-14.548,13.829-13.7,13.829-22.9a9.172,9.172,0,0,0-9.219-9.131,9.409,9.409,0,0,0-9.218,9.275H555.33A18.437,18.437,0,0,1,592.2,49.9c0,11.509-13.827,12.819-13.827,22.9Z" transform="translate(-492.516 -31.61)" fill="#6c63ff"/>
    <path id="パス_2364" data-name="パス 2364" d="M341.672,324.289h-2.45v-2.42h2.45Zm-.037-3.64h-2.376c0-3.75,3.564-3.531,3.564-5.906a2.365,2.365,0,0,0-2.376-2.356,2.427,2.427,0,0,0-2.371,2.39H335.7a4.753,4.753,0,1,1,9.507-.037c-.008,2.967-3.572,3.3-3.572,5.9Z" transform="translate(-303.053 -271.767)" fill="#6c63ff" opacity="0.1"/>
    <path id="パス_2365" data-name="パス 2365" d="M476.683,446.734h-2.45V444.32h2.45Zm-.036-3.638h-2.376c0-3.751,3.564-3.531,3.564-5.906a2.364,2.364,0,0,0-2.376-2.354,2.427,2.427,0,0,0-2.383,2.393H470.7a4.753,4.753,0,1,1,9.507-.037C480.21,440.157,476.647,440.5,476.647,443.1Z" transform="translate(-419.51 -377.398)" fill="#6c63ff" opacity="0.1"/>
    <path id="パス_2366" data-name="パス 2366" d="M569.192,254.718h-1.776v-1.746h1.776Zm-.026-2.639h-1.722c0-2.717,2.584-2.559,2.584-4.279a1.714,1.714,0,0,0-1.722-1.706,1.758,1.758,0,0,0-1.722,1.733H564.86a3.445,3.445,0,0,1,6.89-.027C571.747,249.95,569.166,250.2,569.166,252.079Z" transform="translate(-500.737 -215.147)" fill="#6c63ff" opacity="0.1"/>
    <path id="パス_2367" data-name="パス 2367" d="M801.824,301.253h-1v-.989h1Zm-.015-1.49h-.979c0-1.536,1.46-1.446,1.46-2.419a.961.961,0,0,0-.972-.961.994.994,0,0,0-.974.979h-.974a1.948,1.948,0,0,1,3.894-.015C803.269,298.554,801.809,298.7,801.809,299.763Z" transform="translate(-703.037 -259.218)" fill="#6c63ff" opacity="0.1"/>
    <path id="パス_2368" data-name="パス 2368" d="M913.619,628.724h-1v-.989h1Zm-.015-1.49h-.974c0-1.537,1.461-1.446,1.461-2.419a.968.968,0,0,0-.974-.961.993.993,0,0,0-.974.979h-.974a1.948,1.948,0,0,1,3.894-.015c.006,1.213-1.455,1.352-1.455,2.416Z" transform="translate(-799.481 -541.71)" fill="#6c63ff" opacity="0.1"/>
  </g>
</svg>
