<svg id="グループ_1028" data-name="グループ 1028" xmlns="http://www.w3.org/2000/svg" xmlns:xlink="http://www.w3.org/1999/xlink" width="169.634" height="116.072" viewBox="0 0 169.634 116.072">
  <defs>
    <linearGradient id="linear-gradient" x1="0.5" y1="1" x2="0.5" gradientUnits="objectBoundingBox">
      <stop offset="0" stop-color="gray" stop-opacity="0.251"/>
      <stop offset="0.535" stop-color="gray" stop-opacity="0.122"/>
      <stop offset="1" stop-color="gray" stop-opacity="0.102"/>
    </linearGradient>
    <linearGradient id="linear-gradient-2" x1="0.5" y1="1" x2="0.5" gradientUnits="objectBoundingBox">
      <stop offset="0" stop-color="#b3b3b3" stop-opacity="0.251"/>
      <stop offset="0.535" stop-color="#b3b3b3" stop-opacity="0.102"/>
      <stop offset="1" stop-color="#b3b3b3" stop-opacity="0.051"/>
    </linearGradient>
    <linearGradient id="linear-gradient-3" x1="0.5" y1="1" x2="0.5" gradientUnits="objectBoundingBox">
      <stop offset="0" stop-opacity="0.122"/>
      <stop offset="0.551" stop-opacity="0.09"/>
      <stop offset="1" stop-opacity="0.02"/>
    </linearGradient>
    <linearGradient id="linear-gradient-4" x1="0.5" y1="1" x2="0.5" y2="0" xlink:href="#linear-gradient-3"/>
  </defs>
  <rect id="長方形_1210" data-name="長方形 1210" width="169.634" height="31.368" fill="url(#linear-gradient)"/>
  <rect id="長方形_1211" data-name="長方形 1211" width="167.405" height="28.673" transform="translate(0.991 1.027)" fill="#fff"/>
  <rect id="長方形_1212" data-name="長方形 1212" width="97.315" height="17.065" transform="translate(11.272 6.88)" fill="#f5f5f5"/>
  <path id="パス_2442" data-name="パス 2442" d="M852.005,181.207a9.012,9.012,0,1,0-1.474,13.727l6.515,6.776a.438.438,0,0,0,.62.012l1.623-1.561a.439.439,0,0,0,.012-.62l-6.514-6.776A9.012,9.012,0,0,0,852.005,181.207ZM849.976,192.1a6.446,6.446,0,1,1,.179-9.114,6.446,6.446,0,0,1-.179,9.114Z" transform="translate(-705.668 -173.237)" fill="url(#linear-gradient-2)"/>
  <path id="パス_2443" data-name="パス 2443" d="M856.031,215.554a.564.564,0,0,0,0,1.126A.564.564,0,0,0,856.031,215.554Z" transform="translate(-720.963 -203.131)" fill="url(#linear-gradient-3)"/>
  <path id="パス_2444" data-name="パス 2444" d="M864.651,196.995a5.414,5.414,0,0,0-4.67,2.412c-.308.482.566.908.873.428a4.466,4.466,0,0,1,3.872-1.96,4.934,4.934,0,0,1,4.026,2.342c.308.507,1.114.046.808-.458A5.983,5.983,0,0,0,864.651,196.995Z" transform="translate(-724.531 -188.181)" fill="url(#linear-gradient-4)"/>
  <path id="パス_2445" data-name="パス 2445" d="M852.005,176.115a9.012,9.012,0,1,0-1.474,13.727l6.515,6.776a.438.438,0,0,0,.62.012l1.623-1.561a.438.438,0,0,0,.012-.62l-6.514-6.776A9.012,9.012,0,0,0,852.005,176.115Zm-2.029,10.892a6.446,6.446,0,1,1,.179-9.114,6.446,6.446,0,0,1-.179,9.114Z" transform="translate(-705.668 -169.136)" fill="#6c63ff"/>
  <path id="パス_2446" data-name="パス 2446" d="M856.031,210.462a.564.564,0,0,0,0,1.126A.564.564,0,0,0,856.031,210.462Z" transform="translate(-720.963 -199.03)" fill="#6c63ff"/>
  <path id="パス_2447" data-name="パス 2447" d="M864.651,191.9a5.414,5.414,0,0,0-4.67,2.412c-.308.482.566.908.873.428a4.466,4.466,0,0,1,3.872-1.96,4.934,4.934,0,0,1,4.026,2.342c.308.507,1.114.046.808-.458A5.982,5.982,0,0,0,864.651,191.9Z" transform="translate(-724.531 -184.08)" fill="#6c63ff"/>
  <rect id="長方形_1213" data-name="長方形 1213" width="168.679" height="11.479" transform="translate(0.955 46.81)" fill="#e0e0e0"/>
  <rect id="長方形_1214" data-name="長方形 1214" width="168.679" height="11.479" transform="translate(0.955 66.071)" fill="#e0e0e0"/>
  <rect id="長方形_1215" data-name="長方形 1215" width="168.679" height="11.479" transform="translate(0.955 85.332)" fill="#e0e0e0"/>
  <rect id="長方形_1216" data-name="長方形 1216" width="168.679" height="11.479" transform="translate(0.955 104.593)" fill="#e0e0e0"/>
</svg>
