<svg xmlns="http://www.w3.org/2000/svg" width="142.357" height="118.744" viewBox="0 0 142.357 118.744">
  <g id="グループ_1026" data-name="グループ 1026" transform="translate(0 0)">
    <path id="パス_2369" data-name="パス 2369" d="M567.082,65.489a24.19,24.19,0,0,1-3.2,12.5,24.979,24.979,0,0,1-2.275,3.267c-7.465,9.13-21.343,14.127-33.887,22.221-37.026,23.892-41.037-14.393-39.364-37.984a42.093,42.093,0,0,1,10.271-24.915,39.1,39.1,0,0,1,4-3.931,38.294,38.294,0,0,1,25.1-9.14,39.361,39.361,0,0,1,36.755,24.359,36.8,36.8,0,0,1,2.608,13.627Z" transform="translate(-432.599 -27.503)" fill="#6c63ff"/>
    <path id="パス_2370" data-name="パス 2370" d="M600.824,88.423l-37.48,4.509a39.1,39.1,0,0,1,4-3.931Z" transform="translate(-497.317 -79.862)" fill="#d0cde1"/>
    <path id="パス_2371" data-name="パス 2371" d="M817.43,383.1a24.97,24.97,0,0,1-2.275,3.267l-32.1-3.862Z" transform="translate(-686.148 -332.616)" fill="#d0cde1"/>
    <path id="パス_2372" data-name="パス 2372" d="M708.461,185.56,654.05,178.5l53.1,3.139A36.586,36.586,0,0,1,708.461,185.56Z" transform="translate(-575.276 -157.283)" fill="#d0cde1"/>
    <path id="パス_2373" data-name="パス 2373" d="M468.388,75.438c0,.1,0,.193-.011.287a3.934,3.934,0,1,1-7.4-2.123,3.618,3.618,0,0,1,.289-.465,3.933,3.933,0,0,1,7.111,1.981C468.384,75.223,468.388,75.33,468.388,75.438Z" transform="translate(-408.941 -65.32)" fill="#6c63ff"/>
    <path id="パス_2374" data-name="パス 2374" d="M480.421,96.926c0,.1,0,.193-.011.287l-5.891-.708,5.888.1C480.417,96.711,480.421,96.818,480.421,96.926Z" transform="translate(-420.974 -86.808)" fill="#d0cde1"/>
    <path id="パス_2375" data-name="パス 2375" d="M470.645,113.615l-5.45.656a3.939,3.939,0,0,1-.416-.555Z" transform="translate(-412.603 -101.514)" fill="#d0cde1"/>
    <path id="パス_2376" data-name="パス 2376" d="M468.222,82.615l-4.463.537a3.616,3.616,0,0,1,.289-.465Z" transform="translate(-411.726 -74.87)" fill="#d0cde1"/>
    <path id="パス_2377" data-name="パス 2377" d="M854.926,568.286c-.045.086-.093.169-.144.248a3.934,3.934,0,1,1-5.544-5.346,3.631,3.631,0,0,1,.474-.275A3.933,3.933,0,0,1,855.064,568C855.023,568.094,854.977,568.191,854.926,568.286Z" transform="translate(-741.554 -487.325)" fill="#6c63ff"/>
    <path id="パス_2378" data-name="パス 2378" d="M869.574,584.431c-.045.086-.093.169-.144.248l-4.871-3.387,5.154,2.85C869.671,584.239,869.625,584.336,869.574,584.431Z" transform="translate(-756.202 -503.47)" fill="#d0cde1"/>
    <path id="パス_2379" data-name="パス 2379" d="M852.825,595.136l-5.121-1.975a3.939,3.939,0,0,1-.107-.685Z" transform="translate(-741.624 -513.081)" fill="#d0cde1"/>
    <path id="パス_2380" data-name="パス 2380" d="M863.968,567.288l-4.194-1.618a3.628,3.628,0,0,1,.474-.275Z" transform="translate(-752.09 -489.806)" fill="#d0cde1"/>
    <path id="パス_2381" data-name="パス 2381" d="M1057.27,113.693c.068.069.132.14.192.213a3.934,3.934,0,1,1-6.782,3.649,3.6,3.6,0,0,1-.118-.535,3.933,3.933,0,0,1,6.474-3.546C1057.117,113.542,1057.2,113.615,1057.27,113.693Z" transform="translate(-916.031 -100.56)" fill="#6c63ff"/>
    <path id="パス_2382" data-name="パス 2382" d="M1070.917,119.612c.068.069.132.14.192.213l-4.712,3.606,4.286-4.039C1070.764,119.461,1070.843,119.535,1070.917,119.612Z" transform="translate(-929.678 -106.479)" fill="#d0cde1"/>
    <path id="パス_2383" data-name="パス 2383" d="M1076.009,138.039l-3.443,4.275a3.941,3.941,0,0,1-.685-.107Z" transform="translate(-934.39 -122.505)" fill="#d0cde1"/>
    <path id="パス_2384" data-name="パス 2384" d="M1053.772,123.526l-2.821,3.5a3.642,3.642,0,0,1-.117-.535Z" transform="translate(-916.301 -110.032)" fill="#d0cde1"/>
    <path id="パス_2385" data-name="パス 2385" d="M566.665,636.956s8.635.36,8.635,2.518-9.714,0-9.714,0Z" transform="translate(-499.243 -551.311)" fill="#a0616a"/>
    <path id="パス_2386" data-name="パス 2386" d="M258.852,592.581l-16.19-1.079-.72-8.635-3.6,7.555-15.83-2.159c.36-13.672,6.116-26.984,6.476-28.783s1.22-9.232,1.22-9.232c1.572-3.335,9.811-3.648,16.269-3.346,2.677.122,5.051.353,6.516.518.968.108,1.54.187,1.54.187a22.547,22.547,0,0,1,5.264,10.329C263.482,572.52,258.852,592.581,258.852,592.581Z" transform="translate(-204.382 -473.837)" fill="#2f2e41"/>
    <circle id="楕円形_60" data-name="楕円形 60" cx="8.995" cy="8.995" r="8.995" transform="translate(27.486 17.286)" fill="#a0616a"/>
    <path id="パス_2387" data-name="パス 2387" d="M266.7,229.879s-2.519,11.153-6.476,14.391,15.471,0,15.471,0-4.317-7.2-1.079-10.434S266.7,229.879,266.7,229.879Z" transform="translate(-236.336 -201.44)" fill="#a0616a"/>
    <path id="パス_2388" data-name="パス 2388" d="M252.8,339.744l-5.969.662-16.7,1.856s-.079-.212-.219-.6c-1.212-3.306-7.052-19.4-7.7-24.228-.72-5.4,6.836-11.873,6.836-11.873a88.427,88.427,0,0,1,9.354-1.439c2.159,0,10.793,3.238,10.793,3.238l3.22,28.966.277,2.508Z" transform="translate(-204.087 -265.252)" fill="#d0cde1"/>
    <path id="パス_2389" data-name="パス 2389" d="M369.641,441.8l-12.1-7.091s-.212-.691-.572-1.856c-.18-.583-.4-1.288-.648-2.087-1.4-4.483-3.738-11.88-5.616-17.284-2.878-8.275,11.153,14.751,11.153,14.751l.7.543.277,2.508c.968.108,1.54.187,1.54.187A22.547,22.547,0,0,1,369.641,441.8Z" transform="translate(-314.225 -357.698)" opacity="0.15"/>
    <path id="パス_2390" data-name="パス 2390" d="M362.34,325.778s-3.6,4.677-.72,12.952,6.836,21.227,6.836,21.227l20.867,12.233,2.878-3.6-19.428-15.111s-.72-27.343-4.317-28.423A7.373,7.373,0,0,0,362.34,325.778Z" transform="translate(-322.981 -282.948)" fill="#d0cde1"/>
    <path id="パス_2391" data-name="パス 2391" d="M246.836,540.906s5.037,10.434,7.2,9.354-5.4-11.873-5.4-11.873Z" transform="translate(-225.286 -466.594)" fill="#a0616a"/>
    <path id="パス_2392" data-name="パス 2392" d="M114.5,352.77,95.427,368.6s-7.2,5.037,6.116,8.635,14.391,5.757,14.391,5.757,1.439-4.677,3.238-3.958L103.7,371.479l12.592-7.555Z" transform="translate(-93.485 -307.061)" fill="#d0cde1"/>
    <path id="パス_2393" data-name="パス 2393" d="M162.06,135.977a50.793,50.793,0,0,0,5.093-2.7c-.132-3.92.351-7.479,1.764-9.366a20.718,20.718,0,0,1,3.763-5.024c3.2-3.487,10.288-5.434,11.544-3.691,9.5.188,10.5,7.637,10.5,7.637-.049,3.116-3.288,3.214-6.124,3.1.254,2.127-.423,4.337-2.383,5.317-3.749,1.874-4.873,4.311-3,6s5.248,6.185.75,7.31-5.061,3.374-3.749,4.311-3-1.687-3-1.687-.75,4.5-4.686,3.374a2.368,2.368,0,0,1-1.052-.745c-1.063,1.168-2.011,1.859-2.726,1.862-4.094.022-3.6-4.512-3.6-4.512s-4.859,1.365-3.343.816,1.581-2.866-2.448-5.162S159.8,137.1,162.06,135.977Z" transform="translate(-148.714 -102.314)" fill="#2f2e41"/>
    <path id="パス_2394" data-name="パス 2394" d="M544.937,239.383l-.065-.009.159.605a15.914,15.914,0,0,0,.654,2.484l4.669,17.75a3.009,3.009,0,0,0,2.449,2.208l9.522,1.473a3.008,3.008,0,0,0,3.112-1.553l9.049-16.9a15.864,15.864,0,0,0,.774-1.446l.307-.574-.048-.006a16,16,0,1,0-30.583-4.03Z" transform="translate(-481.365 -193.967)" fill="#3f3d56"/>
    <path id="パス_2395" data-name="パス 2395" d="M557.832,258.311a3.273,3.273,0,0,1-.5-.039l-9.953-1.54a3.284,3.284,0,0,1-2.675-2.411l-4.881-18.553a16.723,16.723,0,0,1-.685-2.608l-.123-.812a16.867,16.867,0,0,1,19.307-18.811l-.043.278a16.592,16.592,0,0,0-18.961,18.678l.095.607a16.608,16.608,0,0,0,.68,2.586l4.884,18.564a3,3,0,0,0,2.446,2.2l9.953,1.54a3.008,3.008,0,0,0,3.108-1.551l.248.133a3.291,3.291,0,0,1-2.9,1.734Z" transform="translate(-476.287 -187.224)" fill="#d0cde1"/>
    <rect id="長方形_1206" data-name="長方形 1206" width="17.61" height="0.364" transform="translate(78.013 65.987) rotate(-69.885)" fill="#d0cde1"/>
    <rect id="長方形_1207" data-name="長方形 1207" width="0.364" height="17.61" transform="translate(73.818 47.936) rotate(-2.516)" fill="#d0cde1"/>
    <path id="パス_2396" data-name="パス 2396" d="M587.888,576.726l-12.754-1.973a.364.364,0,0,1,.111-.719L588,576.007a.364.364,0,0,1-.111.719Z" transform="translate(-507.185 -497.228)" fill="#3f3d56"/>
    <path id="パス_2397" data-name="パス 2397" d="M590.215,557.452l-12.754-1.973a.364.364,0,1,1,.111-.719l12.754,1.973a.364.364,0,0,1-.111.719Z" transform="translate(-509.185 -480.662)" fill="#3f3d56"/>
    <path id="パス_2398" data-name="パス 2398" d="M592.542,538.179l-12.754-1.973a.364.364,0,1,1,.111-.719l12.754,1.973a.364.364,0,1,1-.111.719Z" transform="translate(-511.185 -464.098)" fill="#3f3d56"/>
    <path id="パス_2399" data-name="パス 2399" d="M594.379,580.834c2.53.391,4.8-.7,5.068-2.44l-9.161-1.417C590.017,578.716,591.849,580.443,594.379,580.834Z" transform="translate(-520.45 -499.761)" fill="#3f3d56"/>
    <path id="パス_2400" data-name="パス 2400" d="M619.84,339.544a2.24,2.24,0,0,1-1.241-.8c-.081-.095-.16-.193-.239-.291a2.839,2.839,0,0,0-.937-.872c-.834-.389-1.817.154-2.668.738l-.206-.3c.936-.642,2.027-1.234,3.028-.768a3.15,3.15,0,0,1,1.066.974c.077.1.153.19.232.282.257.3.768.785,1.317.673a1.771,1.771,0,0,0,.632-.334,3.382,3.382,0,0,1,.447-.282,1.78,1.78,0,0,1,1.954.276,3.52,3.52,0,0,1,.265.281.9.9,0,0,0,1.463.172,1.88,1.88,0,0,1,1.1-.329l.039.005c.716.111,1.046.9,1.233,1.494l-.347.109c-.254-.8-.563-1.2-.968-1.247a1.6,1.6,0,0,0-.885.288,1.24,1.24,0,0,1-1.909-.252,3.2,3.2,0,0,0-.237-.252,1.428,1.428,0,0,0-1.548-.219,3.065,3.065,0,0,0-.4.253,2.063,2.063,0,0,1-.769.394A1.2,1.2,0,0,1,619.84,339.544Z" transform="translate(-541.326 -293.578)" fill="#d0cde1"/>
  </g>
</svg>
