<svg id="グループ_1027" data-name="グループ 1027" xmlns="http://www.w3.org/2000/svg" width="150.488" height="108.711" viewBox="0 0 150.488 108.711">
  <path id="パス_2403" data-name="パス 2403" d="M47.247,823.013h-.121a142.617,142.617,0,0,1-16.789-.88l-.183-.024-.368-.049c-.713-.094-1.411-.2-2.074-.313-3.291-.573-4.96-1.256-4.96-2.03,0-.642,1.094-1.2,3.346-1.711,1.083-.245,2.421-.471,3.975-.671.283-.038.575-.073.873-.107a146.077,146.077,0,0,1,16.182-.808c1.183,0,2.38.011,3.557.034,10.027.192,20.818,1.3,20.818,3.263,0,1.175-3.9,1.934-7.175,2.363A139.336,139.336,0,0,1,47.247,823.013Zm-.121-6.332a145.783,145.783,0,0,0-16.152.806q-.445.051-.869.106c-1.547.2-2.876.424-3.951.667-2.837.641-3.143,1.232-3.143,1.457,0,.285.462,1.028,4.744,1.773.659.113,1.354.218,2.065.312l.367.049.183.024a142.364,142.364,0,0,0,16.756.877h.121c14.352-.01,23.993-1.578,23.993-3.036,0-1.282-7.691-2.755-20.562-3C49.5,816.692,48.306,816.681,47.125,816.681Z" transform="translate(-22.75 -714.302)" fill="#3f3d56"/>
  <path id="パス_2404" data-name="パス 2404" d="M145.8,820.586c0,1.744-6.352,3.157-14.2,3.166h-.071a49.81,49.81,0,0,1-9.875-.879l-.324-.073c-.436-.1-.843-.2-1.219-.313-1.793-.531-2.856-1.189-2.856-1.9,0-.577.7-1.117,1.91-1.584a16.416,16.416,0,0,1,2.333-.669c.167-.038.338-.073.513-.107a50.8,50.8,0,0,1,9.518-.807c.711,0,1.41.012,2.093.034C140.506,817.678,145.8,818.995,145.8,820.586Z" transform="translate(-104.932 -715.171)" fill="#3f3d56"/>
  <path id="パス_2405" data-name="パス 2405" d="M171.679,611.65l.609,4.752s.244,1.584.487,2.437c0,0-.244,4.508,1.706,7.676l1.218,2.315.244,3.411,3.046.366-.609-5.117a15.238,15.238,0,0,1,0-3.411c.244-.975-1.218-5.483-1.218-5.483s1.949-6.335.487-7.919S171.679,611.65,171.679,611.65Z" transform="translate(-152.266 -534.926)" fill="#a0616a"/>
  <path id="パス_2406" data-name="パス 2406" d="M185.36,770.695s-1.34,0-1.462.366-2.071,3.655-2.071,3.655-1.706,2.68.731,2.8,3.168-.975,3.168-.975a39.029,39.029,0,0,0,2.315-4.143c.122-.609-.915-1.915-.915-1.915S185.725,771.426,185.36,770.695Z" transform="translate(-160.586 -674.355)" fill="#2f2e41"/>
  <circle id="楕円形_61" data-name="楕円形 61" cx="4.142" cy="4.142" r="4.142" transform="translate(22.337 28.355)" fill="#a0616a"/>
  <path id="パス_2407" data-name="パス 2407" d="M187.1,292.124s0,4.508-1.584,4.873,2.193,4.508,4.264,4.021,2.924-3.777,2.924-3.777-1.828-2.315-1.1-3.533S187.1,292.124,187.1,292.124Z" transform="translate(-163.97 -258.347)" fill="#a0616a"/>
  <path id="パス_2408" data-name="パス 2408" d="M144.647,327.931a3.648,3.648,0,0,1-2.923-1.626,18.879,18.879,0,0,0-1.951.407c-.244.122-4.508,1.462-5.483,4.264l3.9,5s-.853,7.067,0,10.234a8.977,8.977,0,0,1-.366,5.726s-.365.122.244.366,14.62-2.559,14.864-3.29-.244-.731.122-1.1,1.34-2.559.366-3.29-1.584-8.772-1.584-8.772l2.559-6.457s-4.676-3.737-6.359-3.27C148.035,326.123,147.693,327.931,144.647,327.931Z" transform="translate(-119.752 -287.88)" fill="#d0cde1"/>
  <path id="パス_2409" data-name="パス 2409" d="M225.485,600.381s-.244,5.361.244,7.432a14.911,14.911,0,0,1,.487,2.924,25.2,25.2,0,0,0-.366,6.823,43.035,43.035,0,0,1-.426,8.592l2.985.911,1.828-9.26s1.462-5.726.609-8.407c0,0,.487-8.163.853-9.016S225.485,600.381,225.485,600.381Z" transform="translate(-199.005 -526.094)" fill="#a0616a"/>
  <path id="パス_2410" data-name="パス 2410" d="M186.628,242.65a1.385,1.385,0,0,1,.5-1.023,1.943,1.943,0,0,1,1.194-.1c.406.03.9-.072,1.038-.457.083-.24-.007-.527.123-.745.207-.347.838-.308.947-.7a3.071,3.071,0,0,1,.051-.379.561.561,0,0,1,.424-.262,6.781,6.781,0,0,1,1.878-.165.249.249,0,0,0,.178-.035.218.218,0,0,0,.058-.1,1.368,1.368,0,0,0-.292-1.26,3.079,3.079,0,0,0-1.089-.778,7.974,7.974,0,0,0-2.938-.781,3.816,3.816,0,0,0-2.255.446,3.191,3.191,0,0,0-.543.433,4.766,4.766,0,0,0-1.339,2.665,6,6,0,0,0,.327,2.984,3.111,3.111,0,0,0,1.055,1.516c.275.189.512.364.627.043A8.23,8.23,0,0,0,186.628,242.65Z" transform="translate(-163.418 -209.415)" fill="#2f2e41"/>
  <path id="パス_2411" data-name="パス 2411" d="M155.994,501.1s-1.827,2.437-1.462,4.142a27.505,27.505,0,0,0,1.706,4.508s-.731,5.483.487,5.483,6.457-.244,6.579-.853-.366-6.7-.366-6.7.609,5.361.975,5.361,6.7.609,6.945.244.731-9.747.731-9.747.665-4.424-1.434-5.014S155.994,501.1,155.994,501.1Z" transform="translate(-137.312 -437.779)" fill="#2f2e41"/>
  <path id="パス_2412" data-name="パス 2412" d="M213.6,795.983s-2.193-1.218-2.315-.244a39.6,39.6,0,0,1-1.462,4.508s-1.34,2.8,1.584,2.924,3.655-1.218,3.655-1.828-.328-4.789-.328-4.789Z" transform="translate(-185.174 -695.988)" fill="#2f2e41"/>
  <path id="パス_2413" data-name="パス 2413" d="M273.1,401.951l.609,5.361s.731,2.924.244,4.142-2.315,6.823-2.315,6.823-.487-3.046-1.706-3.411l.731-6.945s-1.744-4.334-1.36-4.908S273.1,401.951,273.1,401.951Z" transform="translate(-237.117 -353.859)" fill="#a0616a"/>
  <path id="パス_2414" data-name="パス 2414" d="M132.421,404.755l.244,4.873a17.633,17.633,0,0,0,.853,8.772l.244,1.949,1.584,3.046s.366-2.924,1.1-2.924a7.258,7.258,0,0,1-.487-3.046,60.376,60.376,0,0,0-.122-6.945l.609-4.731Z" transform="translate(-118.125 -356.297)" fill="#a0616a"/>
  <path id="パス_2415" data-name="パス 2415" d="M265.194,350.542h1.34s3.168,7.31,1.949,7.432-5.117,1.1-5.239.609S265.194,350.542,265.194,350.542Z" transform="translate(-231.892 -309.151)" fill="#d0cde1"/>
  <path id="パス_2416" data-name="パス 2416" d="M130.228,355.216l-1.1,1.1s-1.462,5.483-.366,6.092,5.239,1.34,5.483.853S130.228,355.216,130.228,355.216Z" transform="translate(-114.592 -313.215)" fill="#d0cde1"/>
  <path id="パス_2417" data-name="パス 2417" d="M82.353,754.212l-.14-.052a8.16,8.16,0,0,1-5.248-9.732l.033-.146.14.052a8.16,8.16,0,0,1,5.248,9.732Zm-4.434-4.018a9.142,9.142,0,0,0,4.242,3.662,7.869,7.869,0,0,0-4.971-9.219A9.154,9.154,0,0,0,77.919,750.194Z" transform="translate(-69.743 -651.567)" fill="#3f3d56"/>
  <path id="パス_2418" data-name="パス 2418" d="M53.685,776.2a9.327,9.327,0,0,1,3.568,4.628,9.326,9.326,0,0,1-5.76-.984,9.326,9.326,0,0,1-3.568-4.628A9.326,9.326,0,0,1,53.685,776.2Z" transform="translate(-44.643 -678.381)" fill="#6c63ff"/>
  <path id="パス_2419" data-name="パス 2419" d="M535.524,37.214v93.769a4.208,4.208,0,0,1-1.474,3.2,4.151,4.151,0,0,1-2.72,1.007H493.444a4.176,4.176,0,0,1-2.344-.716,4.224,4.224,0,0,1-1.85-3.495V37.214A4.2,4.2,0,0,1,493.444,33h5.67v.731a3.462,3.462,0,0,0,3.452,3.47h19.269a3.414,3.414,0,0,0,2.047-.677,3.211,3.211,0,0,0,.34-.286,3.468,3.468,0,0,0,1.065-2.507V33h6.042A4.2,4.2,0,0,1,535.524,37.214Z" transform="translate(-428.442 -33)" fill="#3f3d56"/>
  <ellipse id="楕円形_62" data-name="楕円形 62" cx="11.521" cy="2.304" rx="11.521" ry="2.304" transform="translate(72.912 79.486)" opacity="0.1"/>
  <path id="パス_2420" data-name="パス 2420" d="M713.8,460.124H647.744v21.814l5.53-5.53H713.8Z" transform="translate(-563.311 -400.147)" fill="#6c63ff"/>
  <rect id="長方形_1208" data-name="長方形 1208" width="45.471" height="3.687" transform="translate(94.725 63.664)" fill="#fff"/>
  <rect id="長方形_1209" data-name="長方形 1209" width="45.471" height="3.687" transform="translate(94.725 69.194)" fill="#fff"/>
  <path id="パス_2421" data-name="パス 2421" d="M687.2,181.614a2.083,2.083,0,0,0-2.859-2.337,3.826,3.826,0,0,0-4.363-1.214,5.4,5.4,0,0,0-9.448,3.55Z" transform="translate(-586.095 -157.569)" fill="#efefef"/>
  <path id="パス_2422" data-name="パス 2422" d="M506.213,238.2a5.4,5.4,0,0,0-9.449-3.579,3.827,3.827,0,0,0-4.831,1.977,2.081,2.081,0,0,0-2.391,1.63h16.67C506.213,238.215,506.213,238.206,506.213,238.2Z" transform="translate(-428.697 -206.751)" fill="#efefef"/>
  <path id="パス_2423" data-name="パス 2423" d="M684.4,290.264a4.527,4.527,0,0,0-7.918-3,3.207,3.207,0,0,0-4.048,1.656,1.744,1.744,0,0,0-2,1.366H684.4C684.4,290.28,684.4,290.272,684.4,290.264Z" transform="translate(-586.005 -252.793)" fill="#efefef"/>
  <path id="パス_2424" data-name="パス 2424" d="M693.244,266.58l-.393-.421-.6.562.562.6.434-.4.169-.158Zm-.431.654-.476-.51.51-.476.4.425.079.085-.079.074Z" transform="translate(-604.979 -235.766)" fill="#efefef"/>
  <path id="パス_2425" data-name="パス 2425" d="M735.158,240.256l-.6.562.562.6.6-.562Zm-.513.565.51-.475.476.51-.51.476Z" transform="translate(-641.772 -213.24)" fill="#efefef"/>
  <path id="パス_2426" data-name="パス 2426" d="M560.263,342.964l-.6.562.562.6.6-.562Zm-.513.566.51-.476.476.51-.51.475Z" transform="translate(-489.675 -302.56)" fill="#efefef"/>
  <path id="パス_2427" data-name="パス 2427" d="M739.336,359.738l-.344-.369-.6.562.562.6.384-.358.218-.2Zm-.381.707-.476-.51.51-.476.347.372.129.138-.129.12Z" transform="translate(-645.107 -316.827)" fill="#efefef"/>
  <path id="パス_2428" data-name="パス 2428" d="M531.777,316.2l-.006-.007-.6.562.562.6.047-.043.556-.519Zm-.043,1.069-.476-.51.51-.476.01.01.466.5-.466.435Z" transform="translate(-464.896 -279.284)" fill="#efefef"/>
  <path id="パス_2429" data-name="パス 2429" d="M590.286,297.686v.824h.824v-.824Zm.761.761h-.7v-.7h.7Z" transform="translate(-516.308 -263.184)" fill="#efefef"/>
  <path id="パス_2430" data-name="パス 2430" d="M704.69,347.333v.824h.824v-.824Zm.761.761h-.7v-.7h.7Z" transform="translate(-615.8 -306.36)" fill="#efefef"/>
  <path id="パス_2431" data-name="パス 2431" d="M504.717,193.829V217.6a21.381,21.381,0,0,1-1.688-1.365v-21.02a21.7,21.7,0,0,1,1.688-1.383Z" transform="translate(-440.425 -172.865)" opacity="0.2"/>
  <path id="パス_2432" data-name="パス 2432" d="M537.527,174.217V203.05q-.871-.408-1.688-.861V175.1Q536.656,174.635,537.527,174.217Z" transform="translate(-468.958 -155.809)" opacity="0.2"/>
  <path id="パス_2433" data-name="パス 2433" d="M570.337,161.4v32.128q-.861-.257-1.688-.555v-31Q569.475,161.662,570.337,161.4Z" transform="translate(-497.491 -144.659)" opacity="0.2"/>
  <path id="パス_2434" data-name="パス 2434" d="M603.147,153.421v34.16q-.856-.143-1.688-.325V153.764Q602.29,153.574,603.147,153.421Z" transform="translate(-526.024 -137.724)" opacity="0.2"/>
  <path id="パス_2435" data-name="パス 2435" d="M635.957,149.454V184.6q-.853-.046-1.688-.127V149.6Q635.1,149.509,635.957,149.454Z" transform="translate(-554.558 -134.274)" opacity="0.2"/>
  <path id="パス_2436" data-name="パス 2436" d="M668.767,148.856v35.189q-.837.046-1.688.056V148.819Q667.93,148.82,668.767,148.856Z" transform="translate(-583.091 -133.722)" opacity="0.2"/>
  <path id="パス_2437" data-name="パス 2437" d="M701.578,150.854v34.292q-.834.14-1.688.244V150.628Q700.743,150.723,701.578,150.854Z" transform="translate(-611.625 -135.295)" opacity="0.2"/>
  <path id="パス_2438" data-name="パス 2438" d="M734.388,156.661v32.363q-.83.247-1.688.456V156.223Q733.558,156.422,734.388,156.661Z" transform="translate(-640.158 -140.161)" opacity="0.2"/>
  <path id="パス_2439" data-name="パス 2439" d="M767.2,166.869v29.2q-.822.38-1.688.717V166.17Q766.375,166.5,767.2,166.869Z" transform="translate(-668.692 -148.811)" opacity="0.2"/>
  <path id="パス_2440" data-name="パス 2440" d="M800.008,182.819v24.335q-.807.574-1.688,1.1v-26.51Q799.2,182.253,800.008,182.819Z" transform="translate(-697.225 -162.353)" opacity="0.2"/>
  <path id="パス_2441" data-name="パス 2441" d="M832.818,208.1v16.332a18.249,18.249,0,0,1-1.688,1.881V206.241a17.9,17.9,0,0,1,1.688,1.862Z" transform="translate(-725.758 -183.659)" opacity="0.2"/>
</svg>
