<svg xmlns="http://www.w3.org/2000/svg" width="85.67" height="28" viewBox="0 0 85.67 28">
  <g id="グループ_1007" data-name="グループ 1007" transform="translate(-2.43 -1394)">
    <g id="多角形_1" data-name="多角形 1" transform="translate(79.1 1422) rotate(-180)" fill="#007feb">
      <path d="M4.22,2.094a1.5,1.5,0,0,1,2.56,0L9.605,6.718A1.5,1.5,0,0,1,8.325,9H2.675a1.5,1.5,0,0,1-1.28-2.282Z" stroke="none"/>
      <path d="M 5.499999523162842 2.376589298248291 C 5.415689468383789 2.376589298248291 5.205339431762695 2.399899482727051 5.073359489440918 2.615869522094727 L 2.247939109802246 7.239279270172119 C 2.110119819641113 7.464809417724609 2.195419311523438 7.667778968811035 2.238489151000977 7.744579315185547 C 2.281559944152832 7.821379661560059 2.410269737243652 7.999999046325684 2.674579620361328 7.999999046325684 L 8.325408935546875 7.999999046325684 C 8.589729309082031 7.999999046325684 8.718439102172852 7.821379661560059 8.761508941650391 7.744579315185547 C 8.804579734802246 7.667778968811035 8.88987922668457 7.464799404144287 8.752059936523438 7.239269256591797 L 5.926639556884766 2.615869522094727 C 5.794659614562988 2.399909496307373 5.584309577941895 2.376589298248291 5.499999523162842 2.376589298248291 M 5.499999523162842 1.376594543457031 C 5.99373722076416 1.376594543457031 6.48747444152832 1.615869522094727 6.779919624328613 2.094419479370117 L 9.605339050292969 6.717819213867188 C 10.21615982055664 7.717349052429199 9.496809005737305 8.999999046325684 8.325408935546875 8.999999046325684 L 2.674579620361328 8.999999046325684 C 1.503189086914063 8.999999046325684 0.783839225769043 7.71735954284668 1.394659996032715 6.71782922744751 L 4.22007942199707 2.094419479370117 C 4.512524604797363 1.615869522094727 5.006261825561523 1.376594543457031 5.499999523162842 1.376594543457031 Z" stroke="none" fill="rgba(112,112,112,0)"/>
    </g>
    <g id="パス_2294" data-name="パス 2294" transform="translate(2.43 1394)" fill="#007feb">
      <path d="M12.795,0h60.08C79.942,0,85.67,4.813,85.67,10.75S79.942,21.5,72.875,21.5H12.795C5.728,21.5,0,16.687,0,10.75S5.728,0,12.795,0Z" stroke="none"/>
      <path d="M 12.79489135742188 1 C 6.291168212890625 1 1 5.373834609985352 1 10.75 C 1 16.12616539001465 6.291168212890625 20.5 12.79489135742188 20.5 L 72.87527465820313 20.5 C 79.37899780273438 20.5 84.670166015625 16.12616539001465 84.670166015625 10.75 C 84.670166015625 5.373834609985352 79.37899780273438 1 72.87527465820313 1 L 12.79489135742188 1 M 12.79489135742188 0 L 72.87527465820313 0 C 79.94168090820313 0 85.670166015625 4.81294059753418 85.670166015625 10.75 C 85.670166015625 16.68705940246582 79.94168090820313 21.5 72.87527465820313 21.5 L 12.79489135742188 21.5 C 5.728469848632813 21.5 0 16.68705940246582 0 10.75 C 0 4.81294059753418 5.728469848632813 0 12.79489135742188 0 Z" stroke="none" fill="rgba(116,116,116,0)"/>
    </g>
    <text id="悩み中..." transform="translate(33 1408)" fill="#fff" stroke="rgba(255,255,255,0)" stroke-width="1" font-size="10" font-family="BIZ-UDPGothic, BIZ UDPGothic"><tspan x="0" y="0">悩み中...</tspan></text>
    <path id="Icon_awesome-sad-tear" data-name="Icon awesome-sad-tear" d="M6.753.563a6.753,6.753,0,1,0,6.753,6.753A6.752,6.752,0,0,0,6.753.563ZM8.931,5.137a.871.871,0,1,1-.871.871A.87.87,0,0,1,8.931,5.137ZM4.139,11.672a1.293,1.293,0,0,1-1.307-1.28A5.588,5.588,0,0,1,3.965,8.274a.217.217,0,0,1,.349,0,5.588,5.588,0,0,1,1.133,2.118A1.293,1.293,0,0,1,4.139,11.672ZM4.574,6.88a.871.871,0,1,1,.871-.871A.87.87,0,0,1,4.574,6.88Zm4.634,4.2A3.2,3.2,0,0,0,6.753,9.929a.436.436,0,0,1,0-.871,4.051,4.051,0,0,1,3.123,1.465A.434.434,0,0,1,9.209,11.078Z" transform="translate(13 1397.441)" fill="#fff"/>
    <g id="パス_2299" data-name="パス 2299" transform="translate(2.43 1394)" fill="#007feb">
      <path d="M12.795,0h60.08C79.942,0,85.67,4.813,85.67,10.75S79.942,21.5,72.875,21.5H12.795C5.728,21.5,0,16.687,0,10.75S5.728,0,12.795,0Z" stroke="none"/>
      <path d="M 12.79489135742188 1 C 6.291168212890625 1 1 5.373834609985352 1 10.75 C 1 16.12616539001465 6.291168212890625 20.5 12.79489135742188 20.5 L 72.87527465820313 20.5 C 79.37899780273438 20.5 84.670166015625 16.12616539001465 84.670166015625 10.75 C 84.670166015625 5.373834609985352 79.37899780273438 1 72.87527465820313 1 L 12.79489135742188 1 M 12.79489135742188 0 L 72.87527465820313 0 C 79.94168090820313 0 85.670166015625 4.81294059753418 85.670166015625 10.75 C 85.670166015625 16.68705940246582 79.94168090820313 21.5 72.87527465820313 21.5 L 12.79489135742188 21.5 C 5.728469848632813 21.5 0 16.68705940246582 0 10.75 C 0 4.81294059753418 5.728469848632813 0 12.79489135742188 0 Z" stroke="none" fill="rgba(116,116,116,0)"/>
    </g>
    <text id="悩み中...-2" data-name="悩み中..." transform="translate(33 1408)" fill="#fff" stroke="rgba(255,255,255,0)" stroke-width="1" font-size="10" font-family="FutoGoB101Pr6N-Bold, A-OTF Futo Go B101 Pr6N" font-weight="700"><tspan x="0" y="0">悩み中...</tspan></text>
    <path id="Icon_awesome-sad-tear-2" data-name="Icon awesome-sad-tear" d="M6.753.563a6.753,6.753,0,1,0,6.753,6.753A6.752,6.752,0,0,0,6.753.563ZM8.931,5.137a.871.871,0,1,1-.871.871A.87.87,0,0,1,8.931,5.137ZM4.139,11.672a1.293,1.293,0,0,1-1.307-1.28A5.588,5.588,0,0,1,3.965,8.274a.217.217,0,0,1,.349,0,5.588,5.588,0,0,1,1.133,2.118A1.293,1.293,0,0,1,4.139,11.672ZM4.574,6.88a.871.871,0,1,1,.871-.871A.87.87,0,0,1,4.574,6.88Zm4.634,4.2A3.2,3.2,0,0,0,6.753,9.929a.436.436,0,0,1,0-.871,4.051,4.051,0,0,1,3.123,1.465A.434.434,0,0,1,9.209,11.078Z" transform="translate(13 1397.441)" fill="#fff"/>
  </g>
</svg>
